<?xml version="1.0" encoding="UTF-8"?>
<svg version="1.1" xmlns="http://www.w3.org/2000/svg" width="2083" height="2086">
<path d="M0 0 C687.39 0 1374.78 0 2083 0 C2083 688.05 2083 1376.1 2083 2085 C1395.61 2085 708.22 2085 0 2085 C0 1396.95 0 708.9 0 0 Z " fill="#FDFEFE" transform="translate(0,1)"/>
<path d="M0 0 C260.37 0 520.74 0 789 0 C789 47.19 789 94.38 789 143 C779.43 143 769.86 143 760 143 C760 105.38 760 67.76 760 29 C518.77 29 277.54 29 29 29 C29 290.03 29 551.06 29 820 C269.9 820 510.8 820 759 820 C759 793.27 759 766.54 759 739 C768.9 739 778.8 739 789 739 C789 775.63 789 812.26 789 850 C528.63 850 268.26 850 0 850 C0 569.5 0 289 0 0 Z " fill="#0355A0" transform="translate(254,622)"/>
<path d="M0 0 C687.39 0 1374.78 0 2083 0 C2083 688.05 2083 1376.1 2083 2085 C1395.61 2085 708.22 2085 0 2085 C0 1396.95 0 708.9 0 0 Z M5 4 C5 689.41 5 1374.82 5 2081 C689.09 2081 1373.18 2081 2078 2081 C2078 1395.59 2078 710.18 2078 4 C1393.91 4 709.82 4 5 4 Z " fill="#2C2829" transform="translate(0,1)"/>
<path d="M0 0 C8.55732406 7.20362308 15.26175446 15.91635311 20.4375 25.8125 C21.08138672 27.04226563 21.08138672 27.04226563 21.73828125 28.296875 C34.51585691 55.67174297 33.65677358 89.84030886 23.87890625 118.02734375 C20.03999751 128.41827463 14.90278354 137.56139714 7.4375 145.8125 C6.77234375 146.57046875 6.1071875 147.3284375 5.421875 148.109375 C-7.2439639 161.71342419 -25.96316272 170.85132618 -44.6015625 171.99975586 C-47.88276169 172.0800352 -51.15545995 172.08553186 -54.4375 172.0625 C-55.53191406 172.07023438 -56.62632813 172.07796875 -57.75390625 172.0859375 C-68.06856405 172.06152411 -77.9785333 170.90357569 -87.625 167.125 C-88.30272461 166.86227295 -88.98044922 166.5995459 -89.67871094 166.32885742 C-109.73893703 158.2557816 -124.68966337 141.9684831 -133.13671875 122.31640625 C-134.96154792 117.83182608 -136.45660449 113.52512293 -137.5625 108.8125 C-137.72878906 108.16313477 -137.89507813 107.51376953 -138.06640625 106.84472656 C-143.00287553 87.29734385 -143.35670033 67.41495462 -138.5625 47.8125 C-138.36914062 46.79800781 -138.17578125 45.78351562 -137.9765625 44.73828125 C-135.34256575 31.92747886 -128.49736686 20.07650688 -120.5625 9.8125 C-119.799375 8.78125 -119.03625 7.75 -118.25 6.6875 C-87.98119957 -25.6930772 -34.06609802 -26.46964126 0 0 Z " fill="#01549F" transform="translate(1249.5625,814.1875)"/>
<path d="M0 0 C1.82265381 0.00858032 1.82265381 0.00858032 3.68212891 0.01733398 C28.17313418 0.4966953 47.98454964 9.31098585 65.0859375 26.8359375 C81.9093587 45.89502929 86.85575095 70.18138777 86.75 94.875 C86.74817719 95.55320801 86.74635437 96.23141602 86.74447632 96.93017578 C86.6984859 107.10978718 86.22967949 116.67107786 83.4375 126.5 C83.0971875 127.73878906 82.756875 128.97757813 82.40625 130.25390625 C75.92835857 151.5915554 63.74782289 169.58445075 43.8828125 180.5 C23.03225196 191.48592992 -1.97272156 194.43256328 -24.7734375 187.75390625 C-47.78428186 180.13897734 -63.73136483 165.78290188 -75.09375 144.65234375 C-87.62683183 118.70733594 -88.90861993 83.29058762 -79.51074219 56.05566406 C-75.26093299 44.57190493 -69.63590331 34.71354042 -61.5625 25.5 C-60.96953125 24.81164063 -60.3765625 24.12328125 -59.765625 23.4140625 C-44.51895934 6.92941971 -21.9525493 -0.12170185 0 0 Z " fill="#01549F" transform="translate(618.5625,1041.5)"/>
<path d="M0 0 C11.55 0 23.1 0 35 0 C36.56266397 3.90665991 37.47900269 6.90402459 38.20507812 10.9609375 C38.52551086 12.72932983 38.52551086 12.72932983 38.85241699 14.53344727 C39.07643188 15.80115967 39.30044678 17.06887207 39.53125 18.375 C39.76980426 19.70442091 40.0087847 21.0337654 40.24816895 22.36303711 C40.74892301 25.14982337 41.24620995 27.9371972 41.74072266 30.72509766 C42.36799964 34.26129215 43.00117721 37.79639408 43.63669586 41.33111572 C44.2495125 44.74119627 44.85920774 48.15183293 45.46875 51.5625 C45.69276489 52.81401855 45.91677979 54.06553711 46.14758301 55.35498047 C47.39372239 62.37923059 48.5400293 69.40672689 49.55383301 76.46850586 C49.87309162 78.98383205 49.87309162 78.98383205 51 81 C51.27578103 83.07054646 51.44421585 85.14151844 51.62109375 87.22265625 C51.9427183 89.58013105 52.39454186 91.79654515 52.93383789 94.10961914 C53.97046392 98.72433972 54.74307018 103.34658931 55.4375 108.0234375 C55.56310303 108.85026031 55.68870605 109.67708313 55.81811523 110.52896118 C56.21498825 113.14387709 56.60780213 115.75937916 57 118.375 C57.51876553 121.82062786 58.03950129 125.26594962 58.5625 128.7109375 C58.68657227 129.52858582 58.81064453 130.34623413 58.93847656 131.18865967 C59.85046606 137.14653508 60.85511454 143.08195235 62 149 C64.63154021 141.83592636 66.19519222 134.60593594 67.64657593 127.13146973 C70.45372263 112.74579548 73.70117651 98.48526682 77.1875 84.25 C77.39746613 83.38858398 77.60743225 82.52716797 77.82376099 81.63964844 C80.09041197 72.35967613 82.4815702 63.1438587 85.15356445 53.97167969 C86.23536548 50.17367504 87.1450826 46.35416767 88 42.5 C89.43676988 36.21439786 91.10131888 30.03584604 92.91796875 23.84765625 C95.13916186 15.94918976 97.0359161 7.96545137 99 0 C109.23 0 119.46 0 130 0 C130.721875 2.92875 131.44375 5.8575 132.1875 8.875 C133.77814316 15.28004505 135.43606582 21.65474425 137.25 28 C140.11889864 38.07838065 142.58446256 48.25970074 145.10140991 58.43017578 C147.13818405 66.65661233 149.17138942 74.86792389 151.5625 83 C156.98477955 101.67487706 160.65256817 121.01217985 164.5 140.0625 C164.65992432 140.85188965 164.81984863 141.6412793 164.98461914 142.45458984 C165.55590228 145.35830925 166 148.03229448 166 151 C166.66 151 167.32 151 168 151 C167.96132812 149.23269531 167.96132812 149.23269531 167.921875 147.4296875 C167.92529857 143.52510623 168.44792442 139.95619081 169.25 136.125 C170.73103285 128.73881176 171.92759001 121.32175145 173.0625 113.875 C173.23402588 112.75174316 173.40555176 111.62848633 173.58227539 110.47119141 C174.64861952 103.43631809 175.6713683 96.39751789 176.60546875 89.34375 C177 87 177 87 178 85 C178.20092783 83.50420396 178.36336066 82.00303276 178.5 80.5 C178.88888889 76.22222222 178.88888889 76.22222222 180 74 C180.20092783 72.50420396 180.36336066 71.00303276 180.5 69.5 C180.88888889 65.22222222 180.88888889 65.22222222 182 63 C182.20092783 61.50420396 182.36336066 60.00303276 182.5 58.5 C182.88888889 54.22222222 182.88888889 54.22222222 184 52 C184.18045833 50.67091011 184.32058429 49.33617957 184.4375 48 C184.75502898 44.87172763 185.19119773 41.83377297 185.83984375 38.7578125 C186.7890337 34.11732832 187.66139754 29.46484066 188.5078125 24.8046875 C188.62483017 24.16056915 188.74184784 23.51645081 188.8624115 22.85281372 C189.28403838 20.52701419 189.70445133 18.20099473 190.125 15.875 C191.07375 10.63625 192.0225 5.3975 193 0 C204.22 0 215.44 0 227 0 C224.7499213 14.62551158 224.7499213 14.62551158 223.75073242 19.51098633 C223.41479317 21.16515312 223.41479317 21.16515312 223.07206726 22.85273743 C222.83558975 24.00090439 222.59911224 25.14907135 222.35546875 26.33203125 C221.97797234 28.1834095 221.97797234 28.1834095 221.59284973 30.07218933 C220.92794543 33.32988785 220.26032544 36.58700488 219.59136963 39.84387207 C218.92754129 43.0796465 218.26775028 46.3162442 217.60742188 49.55273438 C215.32632183 60.72095819 213.02915839 71.88564773 210.6953125 83.04296875 C206.83725602 101.49588483 203.08680507 119.97121111 199.31256104 138.44140625 C198.07387634 144.50262754 196.83451274 150.56371004 195.59526825 156.62481689 C193.7296701 165.74977404 191.86491273 174.87490263 190 184 C175.81 184 161.62 184 147 184 C144.91983846 178.45290257 143.14906834 173.17946257 141.73510742 167.47387695 C141.52972855 166.66097702 141.32434967 165.84807709 141.11274719 165.01054382 C140.43887396 162.33763197 139.77189601 159.66305852 139.10546875 156.98828125 C138.63112296 155.09614695 138.15653434 153.2040735 137.68171692 151.3120575 C136.68596069 147.33943033 135.69372228 143.36594477 134.70385742 139.3918457 C133.70312947 135.37532457 132.69768189 131.36003961 131.68725586 127.34594727 C125.06015769 101.01839648 118.77565323 74.73625142 114 48 C113.67 48 113.34 48 113 48 C112.85079102 48.77859375 112.70158203 49.5571875 112.54785156 50.359375 C108.48420049 71.32370863 103.63522753 92.0287184 98.35253906 112.71875 C95.22426849 124.98418578 92.30034572 137.27769901 89.53466797 149.62982178 C88.3433854 154.91076654 87.08048173 160.17450735 85.8125 165.4375 C85.56564453 166.47197266 85.31878906 167.50644531 85.06445312 168.57226562 C84.82275391 169.57837891 84.58105469 170.58449219 84.33203125 171.62109375 C84.12296143 172.4917749 83.9138916 173.36245605 83.69848633 174.25952148 C82.86637608 177.52426723 81.92556856 180.76051006 81 184 C66.81 184 52.62 184 38 184 C15.41061498 77.26314606 15.41061498 77.26314606 7.50292969 39.66430664 C7.29015381 38.65272995 7.07737793 37.64115326 6.8581543 36.59892273 C6.45864384 34.69793264 6.05968449 32.79682661 5.66137695 30.89558411 C4.72498335 26.4283252 3.77850864 21.96360888 2.81347656 17.50244141 C2.53070358 16.18630608 2.53070358 16.18630608 2.24221802 14.84358215 C1.88938526 13.20310965 1.53339595 11.56331136 1.17355347 9.92436218 C0.44117172 6.50717519 0 3.51418 0 0 Z " fill="#0254A0" transform="translate(1039,1045)"/>
<path d="M0 0 C103.35067568 0 103.35067568 0 123.33203125 16.3203125 C134.71126876 27.77949781 137.25476896 40.71323981 137.2487793 56.14501953 C137.08138238 71.49977259 132.97814067 82.41858843 122.453125 93.640625 C115.82557081 100.01489686 108.66317943 104.03240024 100 107 C101.7351337 112.02381734 104.49954438 116.36055959 107.25 120.875 C107.77867676 121.74922607 108.30735352 122.62345215 108.85205078 123.52416992 C110.56389139 126.35198259 112.28145196 129.17625938 114 132 C115.13806312 133.87367224 116.27608399 135.74737013 117.4140625 137.62109375 C122.22865562 145.54134824 127.05301444 153.4555475 131.89453125 161.359375 C132.52955566 162.39795654 133.16458008 163.43653809 133.81884766 164.5065918 C135.03392951 166.49368085 136.25094756 168.47958768 137.47021484 170.46411133 C138.02016113 171.36411865 138.57010742 172.26412598 139.13671875 173.19140625 C139.61842529 173.97717041 140.10013184 174.76293457 140.59643555 175.57250977 C142.18829381 178.32565757 143.60238714 181.14407589 145 184 C139.59285939 184.32303689 134.19138962 184.5579136 128.77685547 184.71411133 C126.93894633 184.77923155 125.10170441 184.86777109 123.26611328 184.98071289 C111.21187788 185.70344377 111.21187788 185.70344377 106 184 C101.88457133 180.27363496 100.11590898 176.06253093 98 171 C96.86251606 168.98067713 95.69642771 166.97715483 94.5 164.9921875 C93.33189296 162.9539498 92.16526878 160.91486168 91 158.875 C85.48715593 149.26986423 79.90382705 139.71026616 74.25 130.1875 C73.90598145 129.6079657 73.56196289 129.0284314 73.20751953 128.43133545 C70.14911403 123.28102321 67.08181014 118.13635023 64 113 C54.43 112.67 44.86 112.34 35 112 C35 135.76 35 159.52 35 184 C23.45 184 11.9 184 0 184 C0 123.28 0 62.56 0 0 Z " fill="#02549F" transform="translate(1460,1045)"/>
<path d="M0 0 C104.47153465 0 104.47153465 0 124.75 18.125 C134.0452564 28.06980444 137.40628904 40.2027824 137.25 53.4375 C137.24323242 54.27079834 137.23646484 55.10409668 137.22949219 55.96264648 C137.13088005 61.82949562 136.75996404 67.36811507 135 73 C134.74347656 73.825 134.48695313 74.65 134.22265625 75.5 C129.28572573 89.3996842 118.59480147 98.56831329 105.69702148 104.91845703 C101.30231347 107 101.30231347 107 99 107 C105.65270229 118.61743451 112.45970614 130.12092706 119.47851562 141.52050781 C122.35704734 146.21151682 125.20634946 150.9203442 128.0625 155.625 C132.69651834 163.25518913 137.37090225 170.85683044 142.15649414 178.39306641 C145 182.89503209 145 182.89503209 145 184 C139.55593682 184.22311734 134.11455123 184.38606904 128.66699219 184.49438477 C126.81593464 184.53954435 124.9651964 184.60089139 123.11523438 184.67895508 C107.88233246 185.30546959 107.88233246 185.30546959 103.66503906 182.38061523 C102.04409996 179.9963269 101.05186809 177.6824315 100 175 C98.89963004 173.07813478 97.77294126 171.1711787 96.625 169.27734375 C95.4137852 167.16571267 94.20557827 165.05235416 93 162.9375 C92.0136452 161.21727952 91.0272797 159.49706503 90.04016113 157.77728271 C89.36625763 156.60319034 88.69267482 155.42891383 88.01940918 154.25445557 C84.54320702 148.19364866 81.0248362 142.15763429 77.5 136.125 C76.67435547 134.71142212 76.67435547 134.71142212 75.83203125 133.26928711 C74.22161026 130.51270844 72.61080547 127.75635401 71 125 C68.69 121.04 66.38 117.08 64 113 C54.43 112.67 44.86 112.34 35 112 C35 135.76 35 159.52 35 184 C23.45 184 11.9 184 0 184 C0 123.28 0 62.56 0 0 Z " fill="#02549F" transform="translate(1319,799)"/>
<path d="M0 0 C103.17952733 0 103.17952733 0 123.8125 19.4375 C133.70201736 29.93060293 136.69329003 42.34150501 136.5 56.5 C136.52320313 58.19962891 136.52320313 58.19962891 136.546875 59.93359375 C136.47974664 74.58435884 130.89892722 87.33178877 121.046875 98.12109375 C117.11531799 101.73002299 112.61948456 104.36702848 108 107 C107.34257813 107.39058594 106.68515625 107.78117188 106.0078125 108.18359375 C84.89792219 119.82574356 58.10860856 117.18124399 35 117 C35 139.11 35 161.22 35 184 C23.45 184 11.9 184 0 184 C0 123.28 0 62.56 0 0 Z " fill="#02549F" transform="translate(542,799)"/>
<path d="M0 0 C1.72974441 0.00015918 3.45949355 0.0058569 5.18920898 0.01586914 C6.09783188 0.01728409 7.00645477 0.01869904 7.94261169 0.02015686 C10.85687494 0.02577346 13.77106254 0.03832874 16.68530273 0.05102539 C18.65600475 0.05603825 20.62670797 0.06060153 22.59741211 0.06469727 C27.43923832 0.07574828 32.28100768 0.09302401 37.12280273 0.11352539 C45.12109641 22.69627509 52.96481633 45.33084992 60.74780273 67.98852539 C66.613617 85.06473665 72.49129799 102.13451038 78.56982422 119.13647461 C82.38305584 129.80551636 86.07554497 140.51383581 89.75170898 151.23071289 C91.3225702 155.80577354 92.91394249 160.37283026 94.52514648 164.93383789 C94.9006665 165.99989258 95.27618652 167.06594727 95.66308594 168.16430664 C96.36741419 170.1604582 97.0753767 172.15533253 97.78759766 174.14868164 C98.09673096 175.0265332 98.40586426 175.90438477 98.72436523 176.80883789 C98.99587402 177.57212402 99.26738281 178.33541016 99.54711914 179.12182617 C100.12280273 181.11352539 100.12280273 181.11352539 100.12280273 184.11352539 C87.91280273 184.11352539 75.70280273 184.11352539 63.12280273 184.11352539 C58.37280273 168.42602539 58.37280273 168.42602539 56.90112305 163.56396484 C56.59908966 162.56709908 56.59908966 162.56709908 56.29095459 161.5500946 C55.87660376 160.18189463 55.46297054 158.81347722 55.04986572 157.44490051 C54.02203744 154.04652732 52.98222602 150.65338881 51.90209961 147.27124023 C51.35392578 145.54381592 51.35392578 145.54381592 50.79467773 143.78149414 C50.47080078 142.77755615 50.14692383 141.77361816 49.81323242 140.73925781 C49.12280273 138.11352539 49.12280273 138.11352539 49.12280273 134.11352539 C27.34280273 134.11352539 5.56280273 134.11352539 -16.87719727 134.11352539 C-17.86719727 138.07352539 -18.85719727 142.03352539 -19.87719727 146.11352539 C-20.74178631 149.11665156 -21.61996592 152.10510921 -22.54125977 155.09008789 C-22.77879974 155.86742279 -23.01633972 156.64475769 -23.26107788 157.44564819 C-23.75535374 159.06081185 -24.25109302 160.67552839 -24.74829102 162.28979492 C-25.51116765 164.7676617 -26.26872162 167.24711243 -27.02563477 169.72680664 C-27.50970256 171.3063279 -27.99406637 172.88575849 -28.47875977 174.46508789 C-28.70479889 175.20457672 -28.93083801 175.94406555 -29.16372681 176.70596313 C-30.76135718 181.88184522 -30.76135718 181.88184522 -31.87719727 184.11352539 C-43.42719727 184.11352539 -54.97719727 184.11352539 -66.87719727 184.11352539 C-64.62715482 173.98833439 -64.62715482 173.98833439 -63.32421875 170.18994141 C-63.03271942 169.33250839 -62.74122009 168.47507538 -62.44088745 167.59165955 C-62.12983063 166.69266434 -61.8187738 165.79366913 -61.49829102 164.86743164 C-61.17063751 163.90813248 -60.84298401 162.94883331 -60.50540161 161.96046448 C-59.44648538 158.8640352 -58.3807333 155.77000988 -57.31469727 152.67602539 C-56.57530993 150.51908964 -55.83629831 148.36202507 -55.09765625 146.20483398 C-53.03040542 140.17224435 -50.95473695 134.1425778 -48.87719727 128.11352539 C-48.42430484 126.79731388 -47.97149088 125.48107536 -47.51879883 124.16479492 C-45.44672596 118.14403759 -43.36070054 112.12822547 -41.26831055 106.11450195 C-39.46690079 100.93555468 -37.67036483 95.75491594 -35.87329102 90.57446289 C-35.51030411 89.52808151 -35.1473172 88.48170013 -34.77333069 87.40361023 C-34.02172121 85.23692067 -33.27011914 83.07022853 -32.51852417 80.90353394 C-31.38375069 77.6324164 -30.24879259 74.36136298 -29.11376953 71.09033203 C-25.36503034 60.2866743 -21.61744679 49.48262571 -17.87719727 38.67602539 C-17.54268555 37.71059814 -17.20817383 36.7451709 -16.86352539 35.75048828 C-15.02597681 30.44479417 -13.19810092 25.1358945 -11.37719727 19.82446289 C-10.95954102 18.60944092 -10.54188477 17.39441895 -10.11157227 16.14257812 C-9.30706556 13.80177549 -8.5048678 11.46017763 -7.70532227 9.11767578 C-7.34954102 8.08376709 -6.99375977 7.0498584 -6.62719727 5.98461914 C-6.15540039 4.60681274 -6.15540039 4.60681274 -5.67407227 3.20117188 C-4.30538646 -0.38449979 -4.25597563 0.12461612 0 0 Z " fill="#02549F" transform="translate(1337.877197265625,1044.886474609375)"/>
<path d="M0 0 C1.33322437 1.09703544 2.63534189 2.23184904 3.92578125 3.37890625 C3.34558552 6.47816375 2.52093394 8.16890332 0.34375 10.4375 C-0.17638672 10.98857422 -0.69652344 11.53964844 -1.23242188 12.10742188 C-1.77833984 12.67138672 -2.32425781 13.23535156 -2.88671875 13.81640625 C-3.95728186 14.938625 -5.02632029 16.06230042 -6.09375 17.1875 C-6.60244629 17.72358887 -7.11114258 18.25967773 -7.63525391 18.81201172 C-9.56398854 20.91221852 -11.33242401 23.12258618 -13.07421875 25.37890625 C-16.32228371 23.85307108 -19.21699921 21.99495078 -22.19921875 20.00390625 C-36.79977996 10.62201953 -52.94032818 9.17443119 -69.9375 12.02734375 C-83.36039427 16.18755204 -94.82791557 25.33558615 -101.6953125 37.5546875 C-112.74021846 60.17640706 -112.53437773 85.19084613 -104.82421875 108.75390625 C-99.6396606 122.33251094 -90.4743809 132.01103708 -77.296875 138.125 C-61.89920772 144.11609236 -45.4461602 144.38702454 -30.07421875 138.37890625 C-28.76614258 137.88003906 -28.76614258 137.88003906 -27.43164062 137.37109375 C-24.73984176 135.09633415 -24.69662881 134.70579341 -24.41479492 131.36645508 C-24.3736636 129.69004531 -24.35951456 128.01283423 -24.3671875 126.3359375 C-24.34450554 125.01054207 -24.34450554 125.01054207 -24.32136536 123.65837097 C-24.27837242 120.83579216 -24.26963941 118.01428033 -24.26171875 115.19140625 C-24.23858339 113.27796619 -24.21322006 111.36455168 -24.18554688 109.45117188 C-24.11838234 104.75983086 -24.09754384 100.07149002 -24.07421875 95.37890625 C-35.95421875 95.37890625 -47.83421875 95.37890625 -60.07421875 95.37890625 C-60.07421875 86.79890625 -60.07421875 78.21890625 -60.07421875 69.37890625 C-37.96421875 69.37890625 -15.85421875 69.37890625 6.92578125 69.37890625 C7.24665172 89.31298449 7.24665172 89.31298449 7.31640625 97.83007812 C7.36417633 103.6352815 7.42059705 109.4394726 7.52929688 115.24389648 C7.61641572 119.92538447 7.6640951 124.60578679 7.68479919 129.28802299 C7.69954709 131.07149788 7.72834859 132.85491528 7.7716217 134.6379261 C8.0965301 148.58383264 8.0965301 148.58383264 5.21803284 152.99734497 C3.19209356 154.81616044 1.32900226 156.11547044 -1.07421875 157.37890625 C-1.68250015 157.74430008 -2.29078156 158.10969391 -2.91749573 158.48616028 C-4.61077531 159.45338043 -6.37425981 160.29437101 -8.13671875 161.12890625 C-9.28269531 161.680625 -10.42867187 162.23234375 -11.609375 162.80078125 C-36.67705199 174.21830268 -65.03905819 174.66356854 -91.19921875 166.25390625 C-113.7213533 157.59154681 -129.42855356 141.45837538 -139.18554688 119.55078125 C-144.34475288 106.94190854 -146.2610663 94.52735394 -146.25952148 80.96850586 C-146.26168789 78.84663204 -146.27981973 76.72529634 -146.29882812 74.60351562 C-146.40203721 50.23763074 -139.55597531 27.68834275 -123.07421875 9.37890625 C-122.49542969 8.70730469 -121.91664062 8.03570313 -121.3203125 7.34375 C-90.49660814 -26.14290938 -34.70866343 -27.12635654 0 0 Z " fill="#01549F" transform="translate(1631.07421875,814.62109375)"/>
<path d="M0 0 C38.94 0 77.88 0 118 0 C118 9.24 118 18.48 118 28 C90.61 28 63.22 28 35 28 C35 43.51 35 59.02 35 75 C58.1 75 81.2 75 105 75 C105 83.91 105 92.82 105 102 C81.9 102 58.8 102 35 102 C35 119.82 35 137.64 35 156 C63.38 156 91.76 156 121 156 C121 165.24 121 174.48 121 184 C81.07 184 41.14 184 0 184 C0 123.28 0 62.56 0 0 Z " fill="#0355A0" transform="translate(1681,799)"/>
<path d="M0 0 C38.61 0 77.22 0 117 0 C117 9.24 117 18.48 117 28 C89.94 28 62.88 28 35 28 C35 43.51 35 59.02 35 75 C58.1 75 81.2 75 105 75 C105 83.91 105 92.82 105 102 C81.9 102 58.8 102 35 102 C35 119.82 35 137.64 35 156 C63.05 156 91.1 156 120 156 C120 165.24 120 174.48 120 184 C80.4 184 40.8 184 0 184 C0 123.28 0 62.56 0 0 Z " fill="#01549F" transform="translate(382,799)"/>
<path d="M0 0 C38.61 0 77.22 0 117 0 C117 9.24 117 18.48 117 28 C89.94 28 62.88 28 35 28 C35 43.51 35 59.02 35 75 C57.77 75 80.54 75 104 75 C104 83.91 104 92.82 104 102 C81.23 102 58.46 102 35 102 C35 119.82 35 137.64 35 156 C63.05 156 91.1 156 120 156 C120 165.24 120 174.48 120 184 C80.4 184 40.8 184 0 184 C0 123.28 0 62.56 0 0 Z " fill="#02549F" transform="translate(1636,1045)"/>
<path d="M0 0 C2.42106776 1.92835923 4.71026512 3.91379711 7 6 C1.63559144 13.5995788 -4.63475319 20.24336261 -11 27 C-11.98226562 26.32904297 -11.98226562 26.32904297 -12.984375 25.64453125 C-19.72191555 21.18138645 -26.39987839 17.74448836 -34 15 C-34.87140625 14.67902344 -35.7428125 14.35804687 -36.640625 14.02734375 C-47.46888941 10.54219877 -60.50218575 10.31204478 -71 15 C-75.91449374 17.7302743 -79.4626986 20.92539719 -82 26 C-82.48129379 31.712405 -82.79544458 37.09784992 -80.5625 42.4375 C-70.47985998 52.52014002 -56.04974777 56.86690621 -43.0625 62 C0.72752742 79.3554347 0.72752742 79.3554347 10 99 C15.24222533 111.96656492 14.15654131 126.19230742 9 139 C0.85822122 155.03621237 -12.6026369 164.14713222 -29.3203125 169.9921875 C-38.50566715 172.50792158 -47.30162568 173.3601841 -56.8125 173.3125 C-58.5298938 173.30621582 -58.5298938 173.30621582 -60.28198242 173.29980469 C-68.59898801 173.18873009 -76.00713377 172.40511669 -84 170 C-85.06605469 169.7215625 -86.13210938 169.443125 -87.23046875 169.15625 C-98.77234572 165.95706785 -108.99496182 160.65960414 -118.75 153.8125 C-119.34675537 153.39661621 -119.94351074 152.98073242 -120.55834961 152.55224609 C-123.6671377 150.28892157 -125.44456844 148.4868662 -127 145 C-126.60208252 144.57702637 -126.20416504 144.15405273 -125.79418945 143.71826172 C-123.96521593 141.77213825 -122.13884621 139.82358916 -120.3125 137.875 C-119.37374023 136.87726563 -119.37374023 136.87726563 -118.41601562 135.859375 C-114.80763861 132.00540164 -111.33465583 128.09340161 -108 124 C-104.88236284 125.43242789 -102.08213388 127.22379451 -99.22949219 129.12255859 C-85.93227291 137.95234698 -73.16169127 143.55958784 -57 143.375 C-55.98421875 143.38660156 -54.9684375 143.39820313 -53.921875 143.41015625 C-44.40997785 143.37357203 -35.0820934 141.81909789 -28 135 C-23.41488562 129.47434933 -23.39598873 124.31965969 -23.61328125 117.25390625 C-24.24378359 111.94877039 -26.32540311 109.43983863 -30.26049805 106.05639648 C-41.22940241 97.82263109 -55.47636907 93.451967 -68.13110352 88.47680664 C-86.38290963 81.28192892 -106.02818233 73.25855818 -114.875 54.375 C-115.60620102 52.59254365 -116.31747126 50.80165482 -117 49 C-117.433125 47.88625 -117.86625 46.7725 -118.3125 45.625 C-120.90894226 31.9346681 -118.00717793 19.12972092 -110.421875 7.6015625 C-102.57888013 -3.10840949 -91.48182826 -9.83939058 -79 -14 C-77.59814453 -14.47759766 -77.59814453 -14.47759766 -76.16796875 -14.96484375 C-50.24305571 -22.33798416 -21.44113036 -15.60002508 0 0 Z " fill="#02549F" transform="translate(496,1059)"/>
<path d="M0 0 C2.11855344 1.89742497 3.72594025 3.73408103 5.3203125 6.078125 C4.52367187 6.93535156 3.72703125 7.79257812 2.90625 8.67578125 C-2.39430027 14.39132419 -7.67436734 20.09954815 -12.6796875 26.078125 C-15.81430158 24.63520741 -18.3752793 22.85095485 -21.1171875 20.765625 C-30.52412234 14.24893681 -38.99138869 11.64924252 -50.3671875 11.578125 C-51.23384033 11.57176025 -52.10049316 11.56539551 -52.9934082 11.55883789 C-66.40920211 11.82234196 -77.55323354 17.27388435 -87.25390625 26.37109375 C-94.84196927 34.83893219 -99.01239162 45.12817349 -101.6796875 56.078125 C-101.90398438 56.89796875 -102.12828125 57.7178125 -102.359375 58.5625 C-107.26321571 79.65573263 -103.43553344 103.39468946 -92.4296875 121.890625 C-85.09322167 132.74543896 -74.513892 139.72372915 -61.75268555 142.69433594 C-46.30264399 145.55471343 -31.87710008 141.62349087 -19 132.859375 C-15.90971067 130.48703167 -13.28855311 127.96903013 -10.6796875 125.078125 C-7.3887887 126.17509127 -6.71172033 126.92614356 -4.5546875 129.515625 C-2.48789569 131.97714744 -0.40675542 134.36431867 1.8125 136.69140625 C2.64007812 137.56152344 3.46765625 138.43164062 4.3203125 139.328125 C5.1040625 140.13765625 5.8878125 140.9471875 6.6953125 141.78125 C8.3203125 144.078125 8.3203125 144.078125 8.33203125 146.109375 C2.87795121 156.72271995 -13.33787524 164.37308841 -24.109375 168.26953125 C-47.79554087 175.72095425 -73.65827615 173.80774717 -95.734375 162.515625 C-114.50823034 152.19717015 -127.38046346 135.99759925 -134.4921875 116.015625 C-134.7823877 115.20109863 -135.07258789 114.38657227 -135.37158203 113.54736328 C-139.08147642 102.6015333 -140.02959614 92.03358126 -139.99536133 80.54589844 C-139.99221193 78.34519328 -140.01570795 76.14585166 -140.04101562 73.9453125 C-140.15768917 48.24944671 -131.38719624 24.96805696 -113.6796875 6.078125 C-82.28397331 -23.81098371 -34.08307375 -26.3930209 0 0 Z " fill="#01549F" transform="translate(928.6796875,813.921875)"/>
<path d="M0 0 C14.99326489 14.88158321 18.21752908 34.30132626 18.375 54.5 C18.22468216 73.7811533 15.30673556 92.08136606 2 107 C1.47921875 107.61230469 0.9584375 108.22460938 0.421875 108.85546875 C-4.03140003 113.73534255 -8.92744583 116.49575938 -15 119 C-16.15628906 119.48146484 -16.15628906 119.48146484 -17.3359375 119.97265625 C-28.51602002 123.96554287 -39.96386824 122.91197904 -50.83984375 118.546875 C-55.4999226 116.26579809 -59.2536821 113.57364192 -63 110 C-63.91845703 109.14148438 -63.91845703 109.14148438 -64.85546875 108.265625 C-80.45540465 92.14913493 -82.42940684 69.47460805 -82.21484375 48.30078125 C-81.77497116 29.99825647 -76.30137733 13.65182593 -63.5625 0.1875 C-45.64031845 -16.77670302 -18.50599867 -15.20724668 0 0 Z " fill="#FCFEFE" transform="translate(1226,836)"/>
<path d="M0 0 C13.7266908 8.26120107 20.37729176 22.00067551 24.4375 36.9375 C29.25597213 59.91790555 27.52189687 85.75274145 15.24609375 106.140625 C8.1703477 116.21628485 -0.88103715 123.31746204 -12.75 126.8125 C-16.56135513 127.35942997 -20.27894075 127.43435772 -24.125 127.375 C-25.13651123 127.36331787 -26.14802246 127.35163574 -27.19018555 127.33959961 C-40.3946312 126.94945135 -48.72077236 122.35902714 -57.75 112.8125 C-63.5965142 106.4978079 -66.76040534 99.82954036 -69.75 91.8125 C-70.0787915 91.04035156 -70.40758301 90.26820312 -70.74633789 89.47265625 C-74.31564935 80.01237465 -74.13905119 69.53212397 -74.125 59.5625 C-74.12412384 58.87962921 -74.12324768 58.19675842 -74.12234497 57.49319458 C-74.04044842 38.13472019 -70.03851613 20.30743858 -56.13671875 5.93359375 C-49.80435741 0.30597967 -42.82938996 -2.89090449 -34.75 -5.1875 C-23.23408694 -9.02613769 -10.45899406 -5.22043378 0 0 Z " fill="#FCFEFE" transform="translate(643.75,1076.1875)"/>
<path d="M0 0 C38.94 0 77.88 0 118 0 C118 9.24 118 18.48 118 28 C90.61 28 63.22 28 35 28 C35 44.83 35 61.66 35 79 C58.43 79 81.86 79 106 79 C106 88.24 106 97.48 106 107 C82.57 107 59.14 107 35 107 C35 132.41 35 157.82 35 184 C23.45 184 11.9 184 0 184 C0 123.28 0 62.56 0 0 Z " fill="#0355A0" transform="translate(744,1045)"/>
<path d="M0 0 C38.94 0 77.88 0 118 0 C118 9.24 118 18.48 118 28 C90.61 28 63.22 28 35 28 C35 45.16 35 62.32 35 80 C58.1 80 81.2 80 105 80 C105 88.91 105 97.82 105 107 C81.9 107 58.8 107 35 107 C35 132.41 35 157.82 35 184 C23.45 184 11.9 184 0 184 C0 123.28 0 62.56 0 0 Z " fill="#01549F" transform="translate(970,799)"/>
<path d="M0 0 C48.51 0 97.02 0 147 0 C147 9.24 147 18.48 147 28 C128.52 28 110.04 28 91 28 C91 79.48 91 130.96 91 184 C79.45 184 67.9 184 56 184 C56 132.52 56 81.04 56 28 C37.52 28 19.04 28 0 28 C0 18.76 0 9.52 0 0 Z " fill="#0355A0" transform="translate(879,1045)"/>
<path d="M0 0 C11.55 0 23.1 0 35 0 C35 60.72 35 121.44 35 184 C23.45 184 11.9 184 0 184 C0 123.28 0 62.56 0 0 Z " fill="#02549F" transform="translate(715,799)"/>
<path d="M0 0 C5.81625 -0.061875 11.6325 -0.12375 17.625 -0.1875 C20.33130615 -0.22846802 20.33130615 -0.22846802 23.09228516 -0.27026367 C36.288007 -0.38653338 50.36316304 -0.20499511 60.484375 9.41015625 C65.88669683 15.36859944 67.54710912 21.4748239 67.4375 29.25 C67.43137695 29.99217773 67.42525391 30.73435547 67.41894531 31.49902344 C67.20437535 39.10800452 65.17469068 45.23611228 61.375 51.8125 C51.58534262 60.82928969 40.35751221 63.18677156 27.44140625 63.09765625 C26.39043762 63.09614563 26.39043762 63.09614563 25.3182373 63.09460449 C22.73297458 63.08942304 20.14773542 63.07546231 17.5625 63.0625 C11.766875 63.041875 5.97125 63.02125 0 63 C0 42.21 0 21.42 0 0 Z " fill="#FDFEFE" transform="translate(577,826)"/>
<path d="M0 0 C10.1475 -0.061875 10.1475 -0.061875 20.5 -0.125 C22.61986328 -0.14320801 24.73972656 -0.16141602 26.92382812 -0.18017578 C28.62629952 -0.18602348 30.32877373 -0.19111838 32.03125 -0.1953125 C32.89717773 -0.20554443 33.76310547 -0.21577637 34.65527344 -0.22631836 C44.28898463 -0.2290521 54.14735563 1.95557795 61.640625 8.4140625 C67.93370122 15.50325078 68.56146141 22.08029567 68.34375 31.26953125 C67.61966631 39.12748494 64.9278516 45.15631047 59.0390625 50.46875 C46.51887575 59.87088258 32.22951511 59.27764865 17.3125 59.125 C11.599375 59.08375 5.88625 59.0425 0 59 C0 39.53 0 20.06 0 0 Z " fill="#FCFEFE" transform="translate(1495,1072)"/>
<path d="M0 0 C6.331875 -0.061875 12.66375 -0.12375 19.1875 -0.1875 C22.1423938 -0.22846802 22.1423938 -0.22846802 25.15698242 -0.27026367 C38.17271517 -0.37623696 51.8710672 -0.43256867 62 9 C68.27169218 16.82453904 68.60109097 24.18603399 68 34 C66.73110557 42.23512483 61.79174847 48.42947468 55.19140625 53.34765625 C43.60558352 59.90049792 29.47402894 59.39395657 16.625 59.1875 C8.395625 59.0946875 8.395625 59.0946875 0 59 C0 39.53 0 20.06 0 0 Z " fill="#FDFEFE" transform="translate(1354,826)"/>
<path d="M0 0 C7.32732107 4.35231853 11.22552238 10.93878661 13.390625 19.046875 C14.62008109 28.85793461 13.1931423 39.46776274 7.078125 47.546875 C0.20714375 53.93848547 -4.61411549 54.78618078 -14.0078125 54.48046875 C-19.00255096 53.87914991 -22.16065709 52.74076243 -25.609375 49.046875 C-32.81436209 39.08050519 -33.37749097 29.98983948 -32.609375 18.046875 C-31.31909737 10.3052092 -27.73277022 5.62707105 -21.734375 0.671875 C-15.49184042 -2.57973092 -6.48776158 -2.36978117 0 0 Z " fill="#FBFDFE" transform="translate(1437.609375,1267.953125)"/>
<path d="M0 0 C1.28648438 -0.01675781 2.57296875 -0.03351563 3.8984375 -0.05078125 C10.41568534 0.58454794 14.41295628 3.43539674 18.625 8.3125 C24.3518974 16.69145056 24.30957156 25.49038634 23.625 35.3125 C22.21758198 42.60955903 19.47762856 47.29316585 13.72265625 51.97265625 C7.38177628 56.02279001 0.96796882 56.18159534 -6.375 55.3125 C-12.8573416 52.84594864 -16.66789951 48.28411937 -20.0625 42.375 C-23.70895565 33.86660349 -23.63139336 23.17125079 -20.8125 14.4375 C-18.42309106 8.61278425 -14.837165 4.6052226 -9.6171875 1.1484375 C-6.37945532 -0.05866126 -3.44476016 0.01031365 0 0 Z " fill="#FAFCFD" transform="translate(1628.375,1266.6875)"/>
<path d="M0 0 C1.28648438 -0.01675781 2.57296875 -0.03351563 3.8984375 -0.05078125 C10.41568534 0.58454794 14.41295628 3.43539674 18.625 8.3125 C24.3518974 16.69145056 24.30957156 25.49038634 23.625 35.3125 C22.21758198 42.60955903 19.47762856 47.29316585 13.72265625 51.97265625 C7.38177628 56.02279001 0.96796882 56.18159534 -6.375 55.3125 C-12.8573416 52.84594864 -16.66789951 48.28411937 -20.0625 42.375 C-23.70895565 33.86660349 -23.63139336 23.17125079 -20.8125 14.4375 C-18.42309106 8.61278425 -14.837165 4.6052226 -9.6171875 1.1484375 C-6.37945532 -0.05866126 -3.44476016 0.01031365 0 0 Z " fill="#FAFCFD" transform="translate(1186.375,1266.6875)"/>
<path d="M0 0 C1.28648437 -0.01675781 2.57296875 -0.03351563 3.8984375 -0.05078125 C10.41568534 0.58454794 14.41295628 3.43539674 18.625 8.3125 C24.3518974 16.69145056 24.30957156 25.49038634 23.625 35.3125 C22.21758198 42.60955903 19.47762856 47.29316585 13.72265625 51.97265625 C7.38177628 56.02279001 0.96796882 56.18159534 -6.375 55.3125 C-12.8573416 52.84594864 -16.66789951 48.28411937 -20.0625 42.375 C-23.70895565 33.86660349 -23.63139336 23.17125079 -20.8125 14.4375 C-18.42309106 8.61278425 -14.837165 4.6052226 -9.6171875 1.1484375 C-6.37945532 -0.05866126 -3.44476016 0.01031365 0 0 Z " fill="#FAFCFD" transform="translate(435.375,1266.6875)"/>
<path d="M0 0 C2 1 2 1 3.1574707 4.33203125 C3.58831676 5.82321113 4.01042063 7.31693278 4.42578125 8.8125 C4.65524948 9.61421631 4.88471771 10.41593262 5.12113953 11.24194336 C5.85901372 13.82591696 6.58599635 16.41280899 7.3125 19 C7.79027732 20.6825015 8.26878518 22.36479573 8.74804688 24.046875 C9.46380938 26.56021549 10.17895968 29.07371596 10.89146423 31.58798218 C14.6679158 44.91068223 18.62152281 58.17444353 22.75585938 71.390625 C23.04912109 72.34195312 23.34238281 73.29328125 23.64453125 74.2734375 C23.90596924 75.11310059 24.16740723 75.95276367 24.43676758 76.81787109 C25 79 25 79 25 82 C8.83 82 -7.34 82 -24 82 C-17.89066852 60.61733983 -17.89066852 60.61733983 -14.34765625 50.26171875 C-12.13978958 43.50420719 -10.42029967 36.59664277 -8.59936523 29.72753906 C-5.95509049 19.76082502 -3.26197339 9.78592018 0 0 Z " fill="#F9FCFD" transform="translate(1353,1071)"/>
<path d="M0 0 C0.93005859 -0.020625 1.86011719 -0.04125 2.81835938 -0.0625 C10.27113034 -0.10439892 16.07029754 0.74882339 21.875 5.8125 C25.52540029 10.12660943 25.3914741 13.6530919 25.3515625 19.1875 C24.81084136 23.18679596 23.4541557 25.15866798 20.73828125 28.04296875 C18.51786535 29.53127355 16.56287662 29.8787798 13.9375 30.25 C17.27457362 37.13715193 20.74967886 43.81391419 24.8359375 50.2890625 C25.9375 52.25 25.9375 52.25 25.9375 54.25 C23.2975 54.25 20.6575 54.25 17.9375 54.25 C17.62635254 53.5887915 17.31520508 52.92758301 16.99462891 52.24633789 C15.5562132 49.24783497 14.0607505 46.28152696 12.5625 43.3125 C12.07394531 42.27158203 11.58539062 41.23066406 11.08203125 40.15820312 C10.57285156 39.16884766 10.06367187 38.17949219 9.5390625 37.16015625 C9.08869629 36.24371338 8.63833008 35.32727051 8.17431641 34.38305664 C5.23791301 31.14531746 5.23791301 31.14531746 -4.0625 31.25 C-4.0625 39.17 -4.0625 47.09 -4.0625 55.25 C-6.0425 55.25 -8.0225 55.25 -10.0625 55.25 C-11.72966684 53.58283316 -11.18994882 51.5769386 -11.19189453 49.28710938 C-11.19504669 48.22931274 -11.19819885 47.17151611 -11.20144653 46.08166504 C-11.19841019 44.35514709 -11.19841019 44.35514709 -11.1953125 42.59375 C-11.19626923 41.42114624 -11.19722595 40.24854248 -11.19821167 39.04040527 C-11.1988937 36.55541938 -11.19703784 34.07043171 -11.19287109 31.58544922 C-11.18752319 27.76656113 -11.19281536 23.94779065 -11.19921875 20.12890625 C-11.19855797 17.72135391 -11.19727682 15.31380163 -11.1953125 12.90625 C-11.19733673 11.75523804 -11.19936096 10.60422607 -11.20144653 9.41833496 C-11.19829437 8.36053833 -11.19514221 7.3027417 -11.19189453 6.21289062 C-11.19109894 5.27658813 -11.19030334 4.34028564 -11.18948364 3.37561035 C-10.87847395 -1.83045722 -3.99773852 0.02153664 0 0 Z " fill="#0E5CA4" transform="translate(1071.0625,1266.75)"/>
<path d="M0 0 C25 0 25 0 31 3 C35.12594397 7.57199196 36.4102812 10.48515635 36.3515625 16.54296875 C35.76118992 20.66901709 33.7876691 23.94089996 31 27 C28.34306731 28.63704711 27.18389383 29 24 29 C25.60274175 31.89662414 27.20744783 34.79215554 28.8125 37.6875 C29.49022461 38.91243164 29.49022461 38.91243164 30.18164062 40.16210938 C32.01297371 43.46385589 33.84148973 46.74305722 35.82421875 49.95703125 C37 52 37 52 37 54 C33.7578125 54.37109375 33.7578125 54.37109375 30 54 C27.7421875 51.47265625 27.7421875 51.47265625 25.875 48.0625 C25.53645996 47.47436523 25.19791992 46.88623047 24.84912109 46.28027344 C23.33977375 43.6311559 21.97818136 40.95117742 20.734375 38.16796875 C19.56112534 35.41982549 19.56112534 35.41982549 17 32 C13.7 31.67 10.4 31.34 7 31 C7 38.59 7 46.18 7 54 C4.69 54 2.38 54 0 54 C0 36.18 0 18.36 0 0 Z " fill="#0959A2" transform="translate(471,1268)"/>
<path d="M0 0 C2.31 0 4.62 0 7 0 C9.12060547 2.20874023 9.12060547 2.20874023 10.8671875 5.30859375 C11.52589844 6.45005859 12.18460938 7.59152344 12.86328125 8.76757812 C13.53431033 9.99063525 14.20488316 11.21394281 14.875 12.4375 C15.85919922 14.15549805 15.85919922 14.15549805 16.86328125 15.90820312 C22.12249819 25.16052922 27.01947852 34.59234832 32 44 C32 29.48 32 14.96 32 0 C33.98 0 35.96 0 38 0 C39.66716684 1.66716684 39.12744882 3.6730614 39.12939453 5.96289062 C39.13254669 7.02068726 39.13569885 8.07848389 39.13894653 9.16833496 C39.1369223 10.31934692 39.13489807 11.47035889 39.1328125 12.65625 C39.13376923 13.82885376 39.13472595 15.00145752 39.13571167 16.20959473 C39.1363937 18.69458062 39.13453784 21.17956829 39.13037109 23.66455078 C39.12502319 27.48343887 39.13031536 31.30220935 39.13671875 35.12109375 C39.13605797 37.52864609 39.13477682 39.93619837 39.1328125 42.34375 C39.13483673 43.49476196 39.13686096 44.64577393 39.13894653 45.83166504 C39.13421829 47.41835999 39.13421829 47.41835999 39.12939453 49.03710938 C39.12859894 49.97341187 39.12780334 50.90971436 39.12698364 51.87438965 C39 54 39 54 38 55 C35.66702567 55.04092937 33.33294775 55.04241723 31 55 C30.62302979 54.32646484 30.24605957 53.65292969 29.85766602 52.95898438 C28.09278367 49.80589271 26.32767916 46.65292551 24.5625 43.5 C23.92739502 42.36554443 23.29229004 41.23108887 22.63793945 40.06225586 C18.62813664 32.90171225 14.61264578 25.74444435 10.57836914 18.59765625 C8.10578377 14.21156754 8.10578377 14.21156754 7 12 C7.00523682 13.26706787 7.01047363 14.53413574 7.01586914 15.83959961 C7.03391514 20.5228607 7.04543053 25.20611871 7.05493164 29.8894043 C7.05997278 31.91968298 7.06680557 33.94995802 7.07543945 35.98022461 C7.08751467 38.89177347 7.09323034 41.8032745 7.09765625 44.71484375 C7.10281754 45.6283812 7.10797882 46.54191864 7.11329651 47.48313904 C7.11349168 49.65575427 7.06211805 51.82827296 7 54 C6.505 54.495 6.505 54.495 6 55 C4.02 55 2.04 55 0 55 C0 36.85 0 18.7 0 0 Z " fill="#105EA5" transform="translate(1664,1267)"/>
<path d="M0 0 C2.31 0 4.62 0 7 0 C9.12060547 2.20874023 9.12060547 2.20874023 10.8671875 5.30859375 C11.52589844 6.45005859 12.18460938 7.59152344 12.86328125 8.76757812 C13.53431033 9.99063525 14.20488316 11.21394281 14.875 12.4375 C15.85919922 14.15549805 15.85919922 14.15549805 16.86328125 15.90820312 C22.12249819 25.16052922 27.01947852 34.59234832 32 44 C32 29.48 32 14.96 32 0 C33.98 0 35.96 0 38 0 C39.66716684 1.66716684 39.12744882 3.6730614 39.12939453 5.96289062 C39.13254669 7.02068726 39.13569885 8.07848389 39.13894653 9.16833496 C39.1369223 10.31934692 39.13489807 11.47035889 39.1328125 12.65625 C39.13376923 13.82885376 39.13472595 15.00145752 39.13571167 16.20959473 C39.1363937 18.69458062 39.13453784 21.17956829 39.13037109 23.66455078 C39.12502319 27.48343887 39.13031536 31.30220935 39.13671875 35.12109375 C39.13605797 37.52864609 39.13477682 39.93619837 39.1328125 42.34375 C39.13483673 43.49476196 39.13686096 44.64577393 39.13894653 45.83166504 C39.13421829 47.41835999 39.13421829 47.41835999 39.12939453 49.03710938 C39.12859894 49.97341187 39.12780334 50.90971436 39.12698364 51.87438965 C39 54 39 54 38 55 C35.66702567 55.04092937 33.33294775 55.04241723 31 55 C30.62302979 54.32646484 30.24605957 53.65292969 29.85766602 52.95898438 C28.09278367 49.80589271 26.32767916 46.65292551 24.5625 43.5 C23.92739502 42.36554443 23.29229004 41.23108887 22.63793945 40.06225586 C18.62813664 32.90171225 14.61264578 25.74444435 10.57836914 18.59765625 C8.10578377 14.21156754 8.10578377 14.21156754 7 12 C7.00523682 13.26706787 7.01047363 14.53413574 7.01586914 15.83959961 C7.03391514 20.5228607 7.04543053 25.20611871 7.05493164 29.8894043 C7.05997278 31.91968298 7.06680557 33.94995802 7.07543945 35.98022461 C7.08751467 38.89177347 7.09323034 41.8032745 7.09765625 44.71484375 C7.10281754 45.6283812 7.10797882 46.54191864 7.11329651 47.48313904 C7.11349168 49.65575427 7.06211805 51.82827296 7 54 C6.505 54.495 6.505 54.495 6 55 C4.02 55 2.04 55 0 55 C0 36.85 0 18.7 0 0 Z " fill="#105EA5" transform="translate(1301,1267)"/>
<path d="M0 0 C2.64 0 5.28 0 8 0 C10.08219425 5.95875324 12.1633827 11.91785709 14.24389648 17.87719727 C14.95070011 19.9013653 15.65772774 21.92545514 16.36499023 23.94946289 C17.38585413 26.87104729 18.4058925 29.79291882 19.42578125 32.71484375 C19.73840408 33.60896469 20.05102692 34.50308563 20.37312317 35.42430115 C21.25348612 37.94791965 22.1273395 40.47370938 23 43 C23.29345306 43.8366922 23.58690613 44.6733844 23.88925171 45.53543091 C24.16451691 46.33399506 24.4397821 47.1325592 24.72338867 47.95532227 C24.96957443 48.66302261 25.21576019 49.37072296 25.46940613 50.09986877 C26 52 26 52 26 55 C23.36 55 20.72 55 18 55 C16.68 49.39 15.36 43.78 14 38 C4.1 38.495 4.1 38.495 -6 39 C-7.65 43.95 -9.3 48.9 -11 54 C-13.31 54 -15.62 54 -18 54 C-15.70677371 44.91258794 -12.78734429 36.05439895 -9.81152344 27.17382812 C-8.99744328 24.74236367 -8.18984415 22.30881181 -7.3828125 19.875 C-6.85975995 18.30716319 -6.33633542 16.73945042 -5.8125 15.171875 C-5.57490967 14.45505554 -5.33731934 13.73823608 -5.0925293 12.99969482 C-3.59927564 8.56080378 -1.8970924 4.28244826 0 0 Z " fill="#0C5BA3" transform="translate(1514,1267)"/>
<path d="M0 0 C1.98 0 3.96 0 6 0 C6 18.15 6 36.3 6 55 C3.69 55 1.38 55 -1 55 C-3.01273285 52.55069352 -4.27347168 50.58748072 -5.6875 47.8125 C-6.5361904 46.26027014 -7.38516212 44.70819407 -8.234375 43.15625 C-8.67716797 42.32480469 -9.11996094 41.49335937 -9.57617188 40.63671875 C-12.09549626 35.97130323 -14.78341907 31.40210913 -17.4375 26.8125 C-18.43890342 25.07056296 -19.43774319 23.32714876 -20.43359375 21.58203125 C-20.85697021 20.84186768 -21.28034668 20.1017041 -21.71655273 19.33911133 C-23.21977637 16.59945266 -24.60247283 13.79505433 -26 11 C-26 25.52 -26 40.04 -26 55 C-27.98 55 -29.96 55 -32 55 C-33 54 -33 54 -33.12025452 51.86766052 C-33.11803391 50.92834183 -33.11581329 49.98902313 -33.11352539 49.02124023 C-33.11344986 47.96021591 -33.11337433 46.89919159 -33.11329651 45.80601501 C-33.10813522 44.651866 -33.10297394 43.49771698 -33.09765625 42.30859375 C-33.0962413 41.13361832 -33.09482635 39.95864288 -33.09336853 38.74806213 C-33.08774992 34.97784936 -33.07519426 31.20769496 -33.0625 27.4375 C-33.0574874 24.88867273 -33.05292408 22.33984453 -33.04882812 19.79101562 C-33.03777444 13.52732367 -33.02101821 7.26366601 -33 1 C-26.96286011 0.78408813 -26.96286011 0.78408813 -25 1 C-22.8203125 3.2109375 -22.8203125 3.2109375 -21.125 6.375 C-20.8067627 6.94718262 -20.48852539 7.51936523 -20.16064453 8.10888672 C-19.46195817 9.3721411 -18.77685889 10.642979 -18.10351562 11.91992188 C-16.93167888 14.12878229 -15.71386584 16.30711277 -14.484375 18.484375 C-9.90623017 26.61062464 -5.4663504 34.81169094 -1 43 C-0.67 28.81 -0.34 14.62 0 0 Z " fill="#0C5BA3" transform="translate(1387,1267)"/>
<path d="M0 0 C1.98 0 3.96 0 6 0 C6 18.15 6 36.3 6 55 C3.69 55 1.38 55 -1 55 C-3.01273285 52.55069352 -4.27347168 50.58748072 -5.6875 47.8125 C-6.5361904 46.26027014 -7.38516212 44.70819407 -8.234375 43.15625 C-8.67716797 42.32480469 -9.11996094 41.49335937 -9.57617188 40.63671875 C-12.09549626 35.97130323 -14.78341907 31.40210913 -17.4375 26.8125 C-18.43890342 25.07056296 -19.43774319 23.32714876 -20.43359375 21.58203125 C-20.85697021 20.84186768 -21.28034668 20.1017041 -21.71655273 19.33911133 C-23.21977637 16.59945266 -24.60247283 13.79505433 -26 11 C-26 25.52 -26 40.04 -26 55 C-27.98 55 -29.96 55 -32 55 C-33 54 -33 54 -33.12025452 51.86766052 C-33.11803391 50.92834183 -33.11581329 49.98902313 -33.11352539 49.02124023 C-33.11344986 47.96021591 -33.11337433 46.89919159 -33.11329651 45.80601501 C-33.10813522 44.651866 -33.10297394 43.49771698 -33.09765625 42.30859375 C-33.0962413 41.13361832 -33.09482635 39.95864288 -33.09336853 38.74806213 C-33.08774992 34.97784936 -33.07519426 31.20769496 -33.0625 27.4375 C-33.0574874 24.88867273 -33.05292408 22.33984453 -33.04882812 19.79101562 C-33.03777444 13.52732367 -33.02101821 7.26366601 -33 1 C-26.96286011 0.78408813 -26.96286011 0.78408813 -25 1 C-22.8203125 3.2109375 -22.8203125 3.2109375 -21.125 6.375 C-20.8067627 6.94718262 -20.48852539 7.51936523 -20.16064453 8.10888672 C-19.46195817 9.3721411 -18.77685889 10.642979 -18.10351562 11.91992188 C-16.93167888 14.12878229 -15.71386584 16.30711277 -14.484375 18.484375 C-9.90623017 26.61062464 -5.4663504 34.81169094 -1 43 C-0.67 28.81 -0.34 14.62 0 0 Z " fill="#0C5BA3" transform="translate(623,1267)"/>
<path d="M0 0 C7.32732107 4.35231853 11.22552238 10.93878661 13.390625 19.046875 C14.62008109 28.85793461 13.1931423 39.46776274 7.078125 47.546875 C0.20714375 53.93848547 -4.61411549 54.78618078 -14.0078125 54.48046875 C-19.00255096 53.87914991 -22.16065709 52.74076243 -25.609375 49.046875 C-32.81436209 39.08050519 -33.37749097 29.98983948 -32.609375 18.046875 C-31.31909737 10.3052092 -27.73277022 5.62707105 -21.734375 0.671875 C-15.49184042 -2.57973092 -6.48776158 -2.36978117 0 0 Z M-22.609375 11.046875 C-26.95067987 18.609148 -27.11529212 29.30397073 -24.91796875 37.68359375 C-22.84481162 42.23759999 -19.95697987 45.51735944 -15.609375 48.046875 C-10.9886976 48.96123865 -6.71482526 49.12815506 -2.44921875 46.9375 C2.10269033 43.34236162 4.87001166 38.79359148 5.67480469 33.00170898 C5.79170708 30.84176249 5.80044363 28.70949908 5.765625 26.546875 C5.77722656 25.82628906 5.78882813 25.10570312 5.80078125 24.36328125 C5.76538393 17.83837561 4.26051175 13.14479672 -0.171875 8.171875 C-4.27802261 4.59215657 -7.44484574 4.58163154 -12.77734375 4.64453125 C-17.3964061 5.30075666 -19.83808193 7.39919011 -22.609375 11.046875 Z " fill="#0B5AA3" transform="translate(1437.609375,1267.953125)"/>
<path d="M0 0 C1.28648438 -0.01675781 2.57296875 -0.03351563 3.8984375 -0.05078125 C10.41568534 0.58454794 14.41295628 3.43539674 18.625 8.3125 C24.3518974 16.69145056 24.30957156 25.49038634 23.625 35.3125 C22.21758198 42.60955903 19.47762856 47.29316585 13.72265625 51.97265625 C7.38177628 56.02279001 0.96796882 56.18159534 -6.375 55.3125 C-12.8573416 52.84594864 -16.66789951 48.28411937 -20.0625 42.375 C-23.70895565 33.86660349 -23.63139336 23.17125079 -20.8125 14.4375 C-18.42309106 8.61278425 -14.837165 4.6052226 -9.6171875 1.1484375 C-6.37945532 -0.05866126 -3.44476016 0.01031365 0 0 Z M-10.1953125 9.5859375 C-15.40734365 17.21414203 -16.50023629 25.23104756 -15.375 34.3125 C-13.75553351 40.1928088 -11.07663203 44.35323093 -6.375 48.3125 C-2.65524805 50.17237597 1.5653663 49.74344573 5.625 49.3125 C11.35415751 46.76620777 13.3916516 42.89014446 15.625 37.3125 C17.99468489 30.20344534 17.50857189 21.21339893 14.7109375 14.2578125 C12.65470475 10.5743452 10.48301706 8.11290796 6.625 6.3125 C0.71757225 5.21970506 -5.74479456 4.87207531 -10.1953125 9.5859375 Z " fill="#0858A2" transform="translate(1628.375,1266.6875)"/>
<path d="M0 0 C1.28648438 -0.01675781 2.57296875 -0.03351563 3.8984375 -0.05078125 C10.41568534 0.58454794 14.41295628 3.43539674 18.625 8.3125 C24.3518974 16.69145056 24.30957156 25.49038634 23.625 35.3125 C22.21758198 42.60955903 19.47762856 47.29316585 13.72265625 51.97265625 C7.38177628 56.02279001 0.96796882 56.18159534 -6.375 55.3125 C-12.8573416 52.84594864 -16.66789951 48.28411937 -20.0625 42.375 C-23.70895565 33.86660349 -23.63139336 23.17125079 -20.8125 14.4375 C-18.42309106 8.61278425 -14.837165 4.6052226 -9.6171875 1.1484375 C-6.37945532 -0.05866126 -3.44476016 0.01031365 0 0 Z M-10.1953125 9.5859375 C-15.40734365 17.21414203 -16.50023629 25.23104756 -15.375 34.3125 C-13.75553351 40.1928088 -11.07663203 44.35323093 -6.375 48.3125 C-2.65524805 50.17237597 1.5653663 49.74344573 5.625 49.3125 C11.35415751 46.76620777 13.3916516 42.89014446 15.625 37.3125 C17.99468489 30.20344534 17.50857189 21.21339893 14.7109375 14.2578125 C12.65470475 10.5743452 10.48301706 8.11290796 6.625 6.3125 C0.71757225 5.21970506 -5.74479456 4.87207531 -10.1953125 9.5859375 Z " fill="#0858A2" transform="translate(1186.375,1266.6875)"/>
<path d="M0 0 C1.28648437 -0.01675781 2.57296875 -0.03351563 3.8984375 -0.05078125 C10.41568534 0.58454794 14.41295628 3.43539674 18.625 8.3125 C24.3518974 16.69145056 24.30957156 25.49038634 23.625 35.3125 C22.21758198 42.60955903 19.47762856 47.29316585 13.72265625 51.97265625 C7.38177628 56.02279001 0.96796882 56.18159534 -6.375 55.3125 C-12.8573416 52.84594864 -16.66789951 48.28411937 -20.0625 42.375 C-23.70895565 33.86660349 -23.63139336 23.17125079 -20.8125 14.4375 C-18.42309106 8.61278425 -14.837165 4.6052226 -9.6171875 1.1484375 C-6.37945532 -0.05866126 -3.44476016 0.01031365 0 0 Z M-10.1953125 9.5859375 C-15.40734365 17.21414203 -16.50023629 25.23104756 -15.375 34.3125 C-13.75553351 40.1928088 -11.07663203 44.35323093 -6.375 48.3125 C-2.65524805 50.17237597 1.5653663 49.74344573 5.625 49.3125 C11.35415751 46.76620777 13.3916516 42.89014446 15.625 37.3125 C17.99468489 30.20344534 17.50857189 21.21339893 14.7109375 14.2578125 C12.65470475 10.5743452 10.48301706 8.11290796 6.625 6.3125 C0.71757225 5.21970506 -5.74479456 4.87207531 -10.1953125 9.5859375 Z " fill="#0858A2" transform="translate(435.375,1266.6875)"/>
<path d="M0 0 C1.94332185 1.14034238 3.84788601 2.34780942 5.72265625 3.59765625 C5.06265625 4.91765625 4.40265625 6.23765625 3.72265625 7.59765625 C-0.27734375 7.59765625 -0.27734375 7.59765625 -2.15234375 6.6171875 C-4.94648136 5.2766178 -7.18988239 5.29673423 -10.27734375 5.28515625 C-11.30859375 5.26839844 -12.33984375 5.25164062 -13.40234375 5.234375 C-16.61862158 5.64077967 -17.84768388 6.54220738 -20.27734375 8.59765625 C-20.93734375 8.59765625 -21.59734375 8.59765625 -22.27734375 8.59765625 C-22.56609375 9.31953125 -22.85484375 10.04140625 -23.15234375 10.78515625 C-23.83449642 12.49053792 -24.55091468 14.18344381 -25.328125 15.84765625 C-27.55930139 22.31164051 -27.26656035 30.67947728 -25.08984375 37.16015625 C-22.90764886 41.29880174 -20.52304134 44.47480745 -16.27734375 46.59765625 C-14.30010314 46.69438457 -12.31944315 46.72745528 -10.33984375 46.72265625 C-9.27894531 46.72523437 -8.21804688 46.7278125 -7.125 46.73046875 C-4.20161318 46.72334971 -4.20161318 46.72334971 -1.27734375 45.59765625 C-0.94734375 40.64765625 -0.61734375 35.69765625 -0.27734375 30.59765625 C-3.90734375 30.59765625 -7.53734375 30.59765625 -11.27734375 30.59765625 C-11.27734375 28.61765625 -11.27734375 26.63765625 -11.27734375 24.59765625 C-5.33734375 24.59765625 0.60265625 24.59765625 6.72265625 24.59765625 C6.72265625 32.51765625 6.72265625 40.43765625 6.72265625 48.59765625 C-3.09690376 53.50743625 -7.83815867 55.02065131 -18.27734375 53.59765625 C-24.59981148 51.46736573 -29.13994697 46.37286434 -32.27734375 40.59765625 C-35.24220141 32.10922815 -36.15002296 20.94790069 -32.58984375 12.47265625 C-31.47265625 10.421875 -31.47265625 10.421875 -30.27734375 8.59765625 C-29.71660156 7.74107422 -29.71660156 7.74107422 -29.14453125 6.8671875 C-22.27028373 -2.35158814 -10.50291113 -4.49409427 0 0 Z " fill="#0C5BA3" transform="translate(549.27734375,1268.40234375)"/>
<path d="M0 0 C0.71285156 -0.00386719 1.42570313 -0.00773437 2.16015625 -0.01171875 C8.30814806 0.12315493 11.59880454 1.56150378 16.25 5.4375 C15.59 6.7575 14.93 8.0775 14.25 9.4375 C10.25 9.4375 10.25 9.4375 8.3671875 8.4609375 C4.01660168 6.35788679 -1.04634629 6.94569707 -5.75 7.4375 C-10.30283057 9.3887131 -13.00433444 12.12469154 -15.0546875 16.69921875 C-16.96527665 24.22350524 -17.34625124 34.06309072 -14.125 41.25 C-11.42722449 44.87069871 -9.92017304 46.65028298 -5.75 48.4375 C-0.61713875 48.90659593 4.33107599 49.07714134 9.25 47.4375 C9.58 42.4875 9.91 37.5375 10.25 32.4375 C6.62 32.4375 2.99 32.4375 -0.75 32.4375 C-0.75 30.4575 -0.75 28.4775 -0.75 26.4375 C5.19 26.4375 11.13 26.4375 17.25 26.4375 C17.38482736 30.18869675 17.48404403 33.93506297 17.5625 37.6875 C17.60439453 38.75097656 17.64628906 39.81445312 17.68945312 40.91015625 C17.81334684 48.78979658 17.81334684 48.78979658 14.98046875 52.046875 C13.62888672 52.73523437 13.62888672 52.73523437 12.25 53.4375 C11.64671875 53.84097656 11.0434375 54.24445313 10.421875 54.66015625 C4.45222308 56.79677627 -4.46908267 56.56335234 -10.40234375 54.52734375 C-12.42975983 53.31712033 -14.05239893 52.07478022 -15.75 50.4375 C-16.23726562 49.96828125 -16.72453125 49.4990625 -17.2265625 49.015625 C-22.99010716 42.74650625 -24.31448033 36.30910501 -24.25 28.125 C-24.24427979 27.28557861 -24.23855957 26.44615723 -24.23266602 25.58129883 C-24.01126582 17.8904375 -22.36339602 12.26866765 -17 6.58203125 C-11.62214617 1.70255612 -7.31698998 0.02704987 0 0 Z " fill="#0C5BA3" transform="translate(664.75,1266.5625)"/>
<path d="M0 0 C2.31 0 4.62 0 7 0 C7.01458252 1.14476807 7.02916504 2.28953613 7.04418945 3.46899414 C7.10240761 7.73899697 7.17963828 12.00848538 7.26245117 16.27807617 C7.29559026 18.12174088 7.32365613 19.96550436 7.34643555 21.80932617 C7.38018512 24.46836208 7.43250966 27.12650187 7.48828125 29.78515625 C7.49467117 30.60210464 7.5010611 31.41905304 7.50764465 32.26075745 C7.64154412 37.53903952 8.46649608 41.33388432 11 46 C15.44824854 48.96549903 19.78303754 48.63449543 25 48 C28.56381131 45.65309987 29.7194246 42.99369849 31 39 C31.32625495 35.99592745 31.37189621 33.00032174 31.4140625 29.98046875 C31.43342865 29.12189774 31.4527948 28.26332672 31.4727478 27.3787384 C31.53231556 24.64842526 31.57883734 21.91806943 31.625 19.1875 C31.66320079 17.33136227 31.70225375 15.47524188 31.7421875 13.61914062 C31.83799827 9.07956856 31.92211321 4.53991354 32 0 C34.31 0 36.62 0 39 0 C39.09964824 5.37104009 39.17183292 10.74152986 39.21972656 16.11328125 C39.23971364 17.93661892 39.26691286 19.75989356 39.30175781 21.58300781 C39.7142829 43.73803177 39.7142829 43.73803177 33.51635742 50.65600586 C27.96049487 55.60533695 22.49409979 55.33974284 15.39453125 55.28125 C9.87368888 54.82382693 7.50786995 52.50786995 3.75 48.75 C-0.14093895 42.63566736 -0.28716278 35.93490247 -0.1953125 28.90625 C-0.1924826 28.07411987 -0.18965271 27.24198975 -0.18673706 26.38464355 C-0.17564286 23.75627569 -0.15055925 21.1282629 -0.125 18.5 C-0.11495626 16.70573413 -0.10583286 14.91146285 -0.09765625 13.1171875 C-0.07573893 8.74465721 -0.0412849 4.37238857 0 0 Z " fill="#0D5CA4" transform="translate(1007,1267)"/>
<path d="M0 0 C1.99954746 -0.04254356 4.00041636 -0.04080783 6 0 C8.0986573 2.0986573 7.161571 6.7328627 7.17578125 9.63671875 C7.19899079 11.42904806 7.22310858 13.22136579 7.24804688 15.01367188 C7.28309485 17.84667566 7.31246082 20.6792575 7.32592773 23.51245117 C7.34145089 26.24189917 7.38170182 28.97010168 7.42578125 31.69921875 C7.42387283 32.54006516 7.42196442 33.38091156 7.41999817 34.24723816 C7.53388713 39.75247396 8.42746791 42.75696581 12 47 C15.70487832 48.85243916 19.95614188 48.4585162 24 48 C28.15430452 45.66320371 29.61908296 43.47469513 31 39 C31.32292131 35.99547888 31.3718943 33.00045835 31.4140625 29.98046875 C31.43342865 29.12189774 31.4527948 28.26332672 31.4727478 27.3787384 C31.53231556 24.64842526 31.57883734 21.91806943 31.625 19.1875 C31.66320079 17.33136227 31.70225375 15.47524188 31.7421875 13.61914062 C31.83799827 9.07956856 31.92211321 4.53991354 32 0 C33.99954746 -0.04254356 36.00041636 -0.04080783 38 0 C39.96356697 1.96356697 39.16389085 5.75442352 39.16796875 8.4375 C39.17296135 9.56865234 39.17296135 9.56865234 39.17805481 10.72265625 C39.18313141 12.32665394 39.18546291 13.93066225 39.18530273 15.53466797 C39.18746622 17.96209859 39.20554902 20.38905755 39.22460938 22.81640625 C39.298366 42.42628931 39.298366 42.42628931 33.609375 50.4921875 C28.20773164 55.55295045 22.36472658 55.52101258 15.35546875 55.34375 C10.6593289 54.86265535 8.60670637 54.05785975 5 51 C1.49031781 46.33125609 -0.13184928 41.66437119 -0.11352539 35.87402344 C-0.11344986 35.07349548 -0.11337433 34.27296753 -0.11329651 33.44818115 C-0.10813522 32.59387512 -0.10297394 31.73956909 -0.09765625 30.859375 C-0.0962413 29.97719299 -0.09482635 29.09501099 -0.09336853 28.18609619 C-0.08778001 25.37402935 -0.07522961 22.5620427 -0.0625 19.75 C-0.05748352 17.84114698 -0.05292087 15.93229272 -0.04882812 14.0234375 C-0.03781434 9.34892753 -0.02055758 4.67447735 0 0 Z " fill="#0F5DA5" transform="translate(910,1267)"/>
<path d="M0 0 C10.23 0 20.46 0 31 0 C31 1.98 31 3.96 31 6 C23.08 6 15.16 6 7 6 C7 11.61 7 17.22 7 23 C13.93 23 20.86 23 28 23 C28 24.98 28 26.96 28 29 C21.07 29 14.14 29 7 29 C7 35.6 7 42.2 7 49 C15.25 49 23.5 49 32 49 C32 50.98 32 52.96 32 55 C21.44 55 10.88 55 0 55 C0 36.85 0 18.7 0 0 Z " fill="#105EA5" transform="translate(809,1267)"/>
<path d="M0 0 C1.98 0 3.96 0 6 0 C6 7.26 6 14.52 6 22 C14.58 22 23.16 22 32 22 C32 14.74 32 7.48 32 0 C33.98 0 35.96 0 38 0 C38 17.49 38 34.98 38 53 C36.02 53 34.04 53 32 53 C32 44.75 32 36.5 32 28 C23.42 28 14.84 28 6 28 C6 36.25 6 44.5 6 53 C4.02 53 2.04 53 0 53 C0 35.51 0 18.02 0 0 Z " fill="#00539F" transform="translate(756,1268)"/>
<path d="M0 0 C9.9 0 19.8 0 30 0 C30 1.65 30 3.3 30 5 C22.08 5 14.16 5 6 5 C6 10.61 6 16.22 6 22 C12.93 22 19.86 22 27 22 C27 23.98 27 25.96 27 28 C20.07 28 13.14 28 6 28 C6 34.6 6 41.2 6 48 C14.25 48 22.5 48 31 48 C31 49.65 31 51.3 31 53 C20.77 53 10.54 53 0 53 C0 35.51 0 18.02 0 0 Z " fill="#02549F" transform="translate(1108,1268)"/>
<path d="M0 0 C2.31 0 4.62 0 7 0 C9.97852367 8.5797297 12.69736939 17.2035174 15.1875 25.9375 C15.43709473 26.81237061 15.68668945 27.68724121 15.94384766 28.58862305 C17.38900792 33.70515303 18.73728268 38.8354263 20 44 C21.72993802 40.81194416 22.79156511 37.63897958 23.8046875 34.16015625 C24.14113281 33.01353516 24.47757813 31.86691406 24.82421875 30.68554688 C25.17097656 29.48994141 25.51773437 28.29433594 25.875 27.0625 C26.55919507 24.7198473 27.24408953 22.37739876 27.9296875 20.03515625 C28.26709961 18.88160645 28.60451172 17.72805664 28.95214844 16.53955078 C30.58850297 11.01208853 32.28954606 5.5049158 34 0 C36.31 0 38.62 0 41 0 C39.62061166 6.67950117 37.80352195 13.08200361 35.6875 19.5625 C35.06213387 21.50118402 34.43713674 23.4399871 33.8125 25.37890625 C33.50570313 26.32781738 33.19890625 27.27672852 32.8828125 28.25439453 C31.62638115 32.16197942 30.4039767 36.07982537 29.1875 40 C27.83734741 44.34997968 26.45414932 48.68361108 25 53 C22.03 53 19.06 53 16 53 C13.87672921 46.41805098 11.7589651 39.83436517 9.64624023 33.24902344 C8.92704174 31.00993282 8.20635213 28.77132057 7.48413086 26.53320312 C6.44510943 23.31245122 5.41149733 20.09000591 4.37890625 16.8671875 C4.05596085 15.87008759 3.73301544 14.87298767 3.40028381 13.84567261 C1.93167363 9.24508648 0.59888342 4.81232946 0 0 Z " fill="#0A59A2" transform="translate(1455,1268)"/>
<path d="M0 0 C10.23 0 20.46 0 31 0 C31 1.98 31 3.96 31 6 C23.08 6 15.16 6 7 6 C7 12.27 7 18.54 7 25 C13.93 25 20.86 25 28 25 C28 26.65 28 28.3 28 30 C21.07 30 14.14 30 7 30 C7 38.25 7 46.5 7 55 C4.69 55 2.38 55 0 55 C0 36.85 0 18.7 0 0 Z " fill="#0D5CA4" transform="translate(869,1267)"/>
<path d="M0 0 C10.23 0 20.46 0 31 0 C31 1.98 31 3.96 31 6 C23.08 6 15.16 6 7 6 C7 12.27 7 18.54 7 25 C13.93 25 20.86 25 28 25 C28 26.65 28 28.3 28 30 C21.07 30 14.14 30 7 30 C7 38.25 7 46.5 7 55 C4.69 55 2.38 55 0 55 C0 36.85 0 18.7 0 0 Z " fill="#0D5CA4" transform="translate(376,1267)"/>
<path d="M0 0 C10.23 0 20.46 0 31 0 C31 1.65 31 3.3 31 5 C23.08 5 15.16 5 7 5 C7 11.27 7 17.54 7 24 C13.6 24 20.2 24 27 24 C27 25.65 27 27.3 27 29 C20.4 29 13.8 29 7 29 C7 37.25 7 45.5 7 54 C4.69 54 2.38 54 0 54 C0 36.18 0 18.36 0 0 Z " fill="#0657A1" transform="translate(1222,1268)"/>
<path d="M0 0 C12.87 0 25.74 0 39 0 C39 1.65 39 3.3 39 5 C33.72 5 28.44 5 23 5 C23 21.17 23 37.34 23 54 C20.69 54 18.38 54 16 54 C16 37.83 16 21.66 16 5 C10.72 5 5.44 5 0 5 C0 3.35 0 1.7 0 0 Z " fill="#0757A1" transform="translate(958,1268)"/>
<path d="M0 0 C12.87 0 25.74 0 39 0 C39 1.65 39 3.3 39 5 C33.72 5 28.44 5 23 5 C23 20.84 23 36.68 23 53 C20.69 53 18.38 53 16 53 C16 37.16 16 21.32 16 5 C10.72 5 5.44 5 0 5 C0 3.35 0 1.7 0 0 Z " fill="#0B5AA3" transform="translate(1538,1268)"/>
<path d="M0 0 C12.87 0 25.74 0 39 0 C39 1.65 39 3.3 39 5 C33.72 5 28.44 5 23 5 C23 20.84 23 36.68 23 53 C20.69 53 18.38 53 16 53 C16 37.16 16 21.32 16 5 C10.72 5 5.44 5 0 5 C0 3.35 0 1.7 0 0 Z " fill="#0B5AA3" transform="translate(706,1268)"/>
<path d="M0 0 C2.35125 -0.061875 4.7025 -0.12375 7.125 -0.1875 C7.85348145 -0.21481201 8.58196289 -0.24212402 9.33251953 -0.27026367 C13.98540198 -0.32894527 17.07173542 0.53438712 21 3 C22.73631636 6.47263273 22.60190402 10.21193013 22 14 C19.81840855 16.75569447 18.12822506 18.43588747 15 20 C12.44612508 20.07173806 9.92723239 20.09287732 7.375 20.0625 C4.94125 20.041875 2.5075 20.02125 0 20 C0 13.4 0 6.8 0 0 Z " fill="#F8FBFC" transform="translate(1067,1273)"/>
<path d="M0 0 C14.575 -0.4125 14.575 -0.4125 20 3 C22.48386059 6.72579089 22.3804212 8.58711402 22 13 C20.78343764 15.73726532 19.84056753 17.41604804 17.375 19.12890625 C14.01525992 20.36117934 10.77321079 20.21091343 7.25 20.125 C4.8575 20.08375 2.465 20.0425 0 20 C0 13.4 0 6.8 0 0 Z " fill="#FAFCFD" transform="translate(478,1273)"/>
<path d="M0 0 C2.31 0 4.62 0 7 0 C7 18.15 7 36.3 7 55 C4.69 55 2.38 55 0 55 C0 36.85 0 18.7 0 0 Z " fill="#0D5CA4" transform="translate(1279,1267)"/>
<path d="M0 0 C1.98 0 3.96 0 6 0 C6 17.49 6 34.98 6 53 C4.02 53 2.04 53 0 53 C0 35.51 0 18.02 0 0 Z " fill="#00539F" transform="translate(1588,1268)"/>
<path d="M0 0 C1.98 0 3.96 0 6 0 C6 17.49 6 34.98 6 53 C4.02 53 2.04 53 0 53 C0 35.51 0 18.02 0 0 Z " fill="#00539F" transform="translate(569,1268)"/>
<path d="M0 0 C2 1 2 1 2.86962891 3.28491211 C3.15241699 4.27241455 3.43520508 5.25991699 3.7265625 6.27734375 C4.0359375 7.34791016 4.3453125 8.41847656 4.6640625 9.52148438 C4.98117187 10.64876953 5.29828125 11.77605469 5.625 12.9375 C5.94984375 14.06091797 6.2746875 15.18433594 6.609375 16.34179688 C9 24.69391741 9 24.69391741 9 27 C3.72 27 -1.56 27 -7 27 C-5.8754537 19.12817588 -5.8754537 19.12817588 -4.84375 15.95703125 C-4.62589844 15.27576172 -4.40804688 14.59449219 -4.18359375 13.89257812 C-3.95800781 13.20615234 -3.73242188 12.51972656 -3.5 11.8125 C-1.57406897 5.9567256 -1.57406897 5.9567256 0 0 Z " fill="#E8F0F6" transform="translate(1517,1273)"/>
</svg>
