<?xml version="1.0" encoding="UTF-8"?>
<!DOCTYPE svg PUBLIC "-//W3C//DTD SVG 1.1//EN" "http://www.w3.org/Graphics/SVG/1.1/DTD/svg11.dtd">
<svg xmlns="http://www.w3.org/2000/svg" version="1.1" width="176px" height="298px" style="shape-rendering:geometricPrecision; text-rendering:geometricPrecision; image-rendering:optimizeQuality; fill-rule:evenodd; clip-rule:evenodd" xmlns:xlink="http://www.w3.org/1999/xlink">
<g><path style="opacity:0.013" fill="#fbfffe" d="M 49.5,-0.5 C 77.1667,-0.5 104.833,-0.5 132.5,-0.5C 135.489,1.0026 138.156,3.0026 140.5,5.5C 107.5,5.5 74.5,5.5 41.5,5.5C 43.8838,3.11528 46.5505,1.11528 49.5,-0.5 Z"/></g>
<g><path style="opacity:0.033" fill="#f6fdfe" d="M 41.5,5.5 C 74.5,5.5 107.5,5.5 140.5,5.5C 142.914,6.91083 144.581,8.91083 145.5,11.5C 141.5,11.5 137.5,11.5 133.5,11.5C 127.385,6.21847 121.385,6.21847 115.5,11.5C 89.1667,11.5 62.8333,11.5 36.5,11.5C 37.4431,8.89084 39.1097,6.89084 41.5,5.5 Z"/></g>
<g><path style="opacity:0.055" fill="#f0fefe" d="M 36.5,11.5 C 62.8333,11.5 89.1667,11.5 115.5,11.5C 114.631,13.717 114.298,16.0504 114.5,18.5C 87.5,18.5 60.5,18.5 33.5,18.5C 33.7073,15.7594 34.7073,13.4261 36.5,11.5 Z"/></g>
<g><path style="opacity:0.079" fill="#eafcff" d="M 33.5,18.5 C 60.5,18.5 87.5,18.5 114.5,18.5C 114.5,19.5 114.5,20.5 114.5,21.5C 112.062,23.2672 109.395,24.6006 106.5,25.5C 81.8333,25.5 57.1667,25.5 32.5,25.5C 32.1984,22.9407 32.5318,20.6074 33.5,18.5 Z"/></g>
<g><path style="opacity:1" fill="#1fccdd" d="M 133.5,11.5 C 135.81,22.5136 131.477,27.5136 120.5,26.5C 119.791,25.596 118.791,25.2627 117.5,25.5C 117.167,24.8333 116.833,24.1667 116.5,23.5C 116.167,22.5 115.5,21.8333 114.5,21.5C 114.5,20.5 114.5,19.5 114.5,18.5C 114.298,16.0504 114.631,13.717 115.5,11.5C 121.385,6.21847 127.385,6.21847 133.5,11.5 Z"/></g>
<g><path style="opacity:0.105" fill="#e2fcff" d="M 32.5,25.5 C 57.1667,25.5 81.8333,25.5 106.5,25.5C 98.8725,30.9865 90.8725,35.9865 82.5,40.5C 65.8333,40.5 49.1667,40.5 32.5,40.5C 32.5,35.5 32.5,30.5 32.5,25.5 Z"/></g>
<g><path style="opacity:0.106" fill="#e6fcfe" d="M 133.5,11.5 C 137.5,11.5 141.5,11.5 145.5,11.5C 147.41,12.9746 148.576,14.9746 149,17.5C 149.499,22.8229 149.666,28.1563 149.5,33.5C 138.833,33.5 128.167,33.5 117.5,33.5C 118.227,31.0462 119.227,28.7128 120.5,26.5C 131.477,27.5136 135.81,22.5136 133.5,11.5 Z"/></g>
<g><path style="opacity:0.154" fill="#d3fafe" d="M 32.5,40.5 C 49.1667,40.5 65.8333,40.5 82.5,40.5C 76.4303,44.558 70.097,48.2247 63.5,51.5C 57.4296,47.0569 51.9296,47.7236 47,53.5C 45.7428,58.3831 46.5761,62.7165 49.5,66.5C 43.9495,64.3281 38.2829,63.9948 32.5,65.5C 32.5,57.1667 32.5,48.8333 32.5,40.5 Z"/></g>
<g><path style="opacity:0.155" fill="#d8fbff" d="M 117.5,33.5 C 128.167,33.5 138.833,33.5 149.5,33.5C 149.5,38.1667 149.5,42.8333 149.5,47.5C 136.167,47.5 122.833,47.5 109.5,47.5C 111.664,42.4997 114.331,37.833 117.5,33.5 Z"/></g>
<g><path style="opacity:0.994" fill="#38d2fe" d="M 114.5,21.5 C 115.5,21.8333 116.167,22.5 116.5,23.5C 99.2976,33.5966 82.2976,43.9299 65.5,54.5C 64.0937,54.0269 63.427,53.0269 63.5,51.5C 70.097,48.2247 76.4303,44.558 82.5,40.5C 90.8725,35.9865 98.8725,30.9865 106.5,25.5C 109.395,24.6006 112.062,23.2672 114.5,21.5 Z"/></g>
<g><path style="opacity:0.202" fill="#cdfafe" d="M 116.5,23.5 C 116.833,24.1667 117.167,24.8333 117.5,25.5C 109.005,42.4934 100.005,59.16 90.5,75.5C 86.6331,75.2417 82.9664,75.9084 79.5,77.5C 74.2679,73.0562 69.2679,68.3895 64.5,63.5C 65.4025,60.6085 65.7359,57.6085 65.5,54.5C 82.2976,43.9299 99.2976,33.5966 116.5,23.5 Z"/></g>
<g><path style="opacity:0.202" fill="#ccfaff" d="M 109.5,47.5 C 122.833,47.5 136.167,47.5 149.5,47.5C 149.5,52.1667 149.5,56.8333 149.5,61.5C 133.658,61.8296 117.991,61.4963 102.5,60.5C 104.439,55.9098 106.773,51.5765 109.5,47.5 Z"/></g>
<g><path style="opacity:1" fill="#9192ef" d="M 63.5,51.5 C 63.427,53.0269 64.0937,54.0269 65.5,54.5C 65.7359,57.6085 65.4025,60.6085 64.5,63.5C 63.0937,63.9731 62.427,64.9731 62.5,66.5C 58.9009,67.3439 55.2343,67.6773 51.5,67.5C 50.8333,67.1667 50.1667,66.8333 49.5,66.5C 46.5761,62.7165 45.7428,58.3831 47,53.5C 51.9296,47.7236 57.4296,47.0569 63.5,51.5 Z"/></g>
<g><path style="opacity:0.904" fill="#e48906" d="M 32.5,66.5 C 33.1655,70.1515 33.4988,73.9848 33.5,78C 33.4313,82.4213 32.7646,86.588 31.5,90.5C 31.317,92.9363 31.9837,95.103 33.5,97C 32.7476,97.6708 32.4142,98.5041 32.5,99.5C 23.0967,92.7945 19.9301,83.7945 23,72.5C 25.8012,69.8533 28.9679,67.8533 32.5,66.5 Z"/></g>
<g><path style="opacity:1" fill="#daa645" d="M 49.5,66.5 C 50.1667,66.8333 50.8333,67.1667 51.5,67.5C 53.583,70.6508 55.9163,73.6508 58.5,76.5C 57.9649,78.261 56.9649,79.5943 55.5,80.5C 49.9554,84.264 43.9554,85.264 37.5,83.5C 36.878,87.1264 36.7114,90.793 37,94.5C 36.1253,91.7854 34.2919,90.4521 31.5,90.5C 32.7646,86.588 33.4313,82.4213 33.5,78C 33.4988,73.9848 33.1655,70.1515 32.5,66.5C 32.5,66.1667 32.5,65.8333 32.5,65.5C 38.2829,63.9948 43.9495,64.3281 49.5,66.5 Z"/></g>
<g><path style="opacity:1" fill="#40cffe" d="M 117.5,25.5 C 118.791,25.2627 119.791,25.596 120.5,26.5C 119.227,28.7128 118.227,31.0462 117.5,33.5C 114.331,37.833 111.664,42.4997 109.5,47.5C 106.773,51.5765 104.439,55.9098 102.5,60.5C 99.3429,64.8056 96.6762,69.4722 94.5,74.5C 93.5987,75.2905 92.9321,76.2905 92.5,77.5C 91.5,77.1667 90.8333,76.5 90.5,75.5C 100.005,59.16 109.005,42.4934 117.5,25.5 Z"/></g>
<g><path style="opacity:0.255" fill="#c0f9ff" d="M 102.5,60.5 C 117.991,61.4963 133.658,61.8296 149.5,61.5C 149.5,66.1667 149.5,70.8333 149.5,75.5C 130.992,75.8302 112.659,75.4968 94.5,74.5C 96.6762,69.4722 99.3429,64.8056 102.5,60.5 Z"/></g>
<g><path style="opacity:0.984" fill="#41c5fe" d="M 64.5,63.5 C 69.2679,68.3895 74.2679,73.0562 79.5,77.5C 79.6716,78.4916 79.3382,79.1583 78.5,79.5C 73.1667,75.1667 67.8333,70.8333 62.5,66.5C 62.427,64.9731 63.0937,63.9731 64.5,63.5 Z"/></g>
<g><path style="opacity:0.302" fill="#b3f8fe" d="M 94.5,74.5 C 112.659,75.4968 130.992,75.8302 149.5,75.5C 149.5,80.5 149.5,85.5 149.5,90.5C 131.5,90.5 113.5,90.5 95.5,90.5C 96.4675,87.5547 96.6342,84.5547 96,81.5C 95.34,79.6763 94.1733,78.343 92.5,77.5C 92.9321,76.2905 93.5987,75.2905 94.5,74.5 Z"/></g>
<g><path style="opacity:1" fill="#dacbc3" d="M 55.5,80.5 C 57.6884,87.3159 56.3551,93.3159 51.5,98.5C 47.6089,99.5736 45.7756,102.24 46,106.5C 44.8904,108.037 43.3904,108.703 41.5,108.5C 37.5517,107.885 35.2184,105.552 34.5,101.5C 33.8933,101.624 33.56,101.957 33.5,102.5C 33.1667,102.5 32.8333,102.5 32.5,102.5C 32.5,101.5 32.5,100.5 32.5,99.5C 32.4142,98.5041 32.7476,97.6708 33.5,97C 31.9837,95.103 31.317,92.9363 31.5,90.5C 34.2919,90.4521 36.1253,91.7854 37,94.5C 36.7114,90.793 36.878,87.1264 37.5,83.5C 43.9554,85.264 49.9554,84.264 55.5,80.5 Z"/></g>
<g><path style="opacity:0.997" fill="#43d2e1" d="M 90.5,75.5 C 90.8333,76.5 91.5,77.1667 92.5,77.5C 94.1733,78.343 95.34,79.6763 96,81.5C 96.6342,84.5547 96.4675,87.5547 95.5,90.5C 95.5,90.8333 95.5,91.1667 95.5,91.5C 94.1667,91.5 93.5,92.1667 93.5,93.5C 90.0336,95.0916 86.3669,95.7583 82.5,95.5C 82.5,94.1667 81.8333,93.5 80.5,93.5C 76.1434,89.3602 75.4767,84.6935 78.5,79.5C 79.3382,79.1583 79.6716,78.4916 79.5,77.5C 82.9664,75.9084 86.6331,75.2417 90.5,75.5 Z"/></g>
<g><path style="opacity:0.328" fill="#abf6fe" d="M 62.5,66.5 C 67.8333,70.8333 73.1667,75.1667 78.5,79.5C 75.4767,84.6935 76.1434,89.3602 80.5,93.5C 74.084,106.001 67.4173,118.334 60.5,130.5C 60.7693,126.069 60.436,121.735 59.5,117.5C 62.167,111.616 61.8336,105.782 58.5,100C 56.6547,98.872 54.6547,98.372 52.5,98.5C 52.1667,98.5 51.8333,98.5 51.5,98.5C 56.3551,93.3159 57.6884,87.3159 55.5,80.5C 56.9649,79.5943 57.9649,78.261 58.5,76.5C 55.9163,73.6508 53.583,70.6508 51.5,67.5C 55.2343,67.6773 58.9009,67.3439 62.5,66.5 Z"/></g>
<g><path style="opacity:1" fill="#48c6fe" d="M 95.5,91.5 C 102.833,97.8333 110.167,104.167 117.5,110.5C 117.068,111.71 116.401,112.71 115.5,113.5C 109.162,105.833 101.829,99.1663 93.5,93.5C 93.5,92.1667 94.1667,91.5 95.5,91.5 Z"/></g>
<g><path style="opacity:0.348" fill="#a5f5fe" d="M 95.5,91.5 C 95.5,91.1667 95.5,90.8333 95.5,90.5C 113.5,90.5 131.5,90.5 149.5,90.5C 149.5,96.1667 149.5,101.833 149.5,107.5C 149.5,107.833 149.5,108.167 149.5,108.5C 144.386,109.947 141.386,113.28 140.5,118.5C 140.167,118.5 139.833,118.5 139.5,118.5C 138.221,117.032 136.554,116.365 134.5,116.5C 134.768,118.099 134.434,119.432 133.5,120.5C 134.852,112.857 131.686,108.857 124,108.5C 121.59,108.482 119.423,109.149 117.5,110.5C 110.167,104.167 102.833,97.8333 95.5,91.5 Z"/></g>
<g><path style="opacity:1" fill="#6db6e9" d="M 51.5,98.5 C 51.8333,98.5 52.1667,98.5 52.5,98.5C 54.8151,99.5844 56.6484,101.251 58,103.5C 58.4992,108.155 58.6658,112.821 58.5,117.5C 58.5,122.5 58.5,127.5 58.5,132.5C 50.1667,132.167 46.1667,136.167 46.5,144.5C 46.9166,132.41 45.25,120.41 41.5,108.5C 43.3904,108.703 44.8904,108.037 46,106.5C 45.7756,102.24 47.6089,99.5736 51.5,98.5 Z"/></g>
<g><path style="opacity:0.999" fill="#5a86af" d="M 52.5,98.5 C 54.6547,98.372 56.6547,98.872 58.5,100C 61.8336,105.782 62.167,111.616 59.5,117.5C 59.1667,117.5 58.8333,117.5 58.5,117.5C 58.6658,112.821 58.4992,108.155 58,103.5C 56.6484,101.251 54.8151,99.5844 52.5,98.5 Z"/></g>
<g><path style="opacity:0.987" fill="#48c1fe" d="M 80.5,93.5 C 81.8333,93.5 82.5,94.1667 82.5,95.5C 78.5656,102.369 74.8989,109.369 71.5,116.5C 67.9294,121.967 64.5961,127.633 61.5,133.5C 60.5084,133.672 59.8417,133.338 59.5,132.5C 60.3382,132.158 60.6716,131.492 60.5,130.5C 67.4173,118.334 74.084,106.001 80.5,93.5 Z"/></g>
<g><path style="opacity:0.954" fill="#953cba" d="M 175.5,138.5 C 175.5,141.167 175.5,143.833 175.5,146.5C 174.391,146.557 173.391,146.89 172.5,147.5C 169.759,147.707 167.426,148.707 165.5,150.5C 165.167,150.5 164.833,150.5 164.5,150.5C 162.565,151.15 160.565,151.483 158.5,151.5C 158.5,149.833 158.5,148.167 158.5,146.5C 159.015,144.106 159.681,141.772 160.5,139.5C 161.497,135.863 161.997,132.196 162,128.5C 156.888,125.964 153.388,121.964 151.5,116.5C 150.893,116.624 150.56,116.957 150.5,117.5C 149.523,114.713 149.19,111.713 149.5,108.5C 149.5,108.167 149.5,107.833 149.5,107.5C 156.156,106.382 162.323,107.715 168,111.5C 169.439,113.275 170.439,115.275 171,117.5C 172.076,124.724 173.576,131.724 175.5,138.5 Z"/></g>
<g><path style="opacity:0.953" fill="#2a3677" d="M 26.5,108.5 C 28.7224,108.178 30.5557,108.845 32,110.5C 32.4994,116.157 32.6661,121.824 32.5,127.5C 29.6085,128.403 26.6085,128.736 23.5,128.5C 22.8826,128.389 22.3826,128.056 22,127.5C 21.3333,122.167 21.3333,116.833 22,111.5C 23.2708,110.117 24.7708,109.117 26.5,108.5 Z"/></g>
<g><path style="opacity:0.399" fill="#9bf4fe" d="M 93.5,93.5 C 101.829,99.1663 109.162,105.833 115.5,113.5C 114.89,114.391 114.557,115.391 114.5,116.5C 100.167,116.5 85.8333,116.5 71.5,116.5C 74.8989,109.369 78.5656,102.369 82.5,95.5C 86.3669,95.7583 90.0336,95.0916 93.5,93.5 Z"/></g>
<g><path style="opacity:0.999" fill="#9688d6" d="M 149.5,108.5 C 149.19,111.713 149.523,114.713 150.5,117.5C 150.167,118.167 149.833,118.833 149.5,119.5C 146.754,121.126 143.754,121.793 140.5,121.5C 140.5,120.5 140.5,119.5 140.5,118.5C 141.386,113.28 144.386,109.947 149.5,108.5 Z"/></g>
<g><path style="opacity:1" fill="#62a2da" d="M 133.5,120.5 C 133.16,123.675 131.493,125.841 128.5,127C 122.871,128.755 118.537,127.255 115.5,122.5C 115.672,121.508 115.338,120.842 114.5,120.5C 114.5,119.167 114.5,117.833 114.5,116.5C 114.557,115.391 114.89,114.391 115.5,113.5C 116.401,112.71 117.068,111.71 117.5,110.5C 119.423,109.149 121.59,108.482 124,108.5C 131.686,108.857 134.852,112.857 133.5,120.5 Z"/></g>
<g><path style="opacity:1" fill="#c8d3d3" d="M 139.5,118.5 C 139.833,118.5 140.167,118.5 140.5,118.5C 140.5,119.5 140.5,120.5 140.5,121.5C 143.754,121.793 146.754,121.126 149.5,119.5C 149.5,125.833 149.5,132.167 149.5,138.5C 147.265,137.772 145.432,136.439 144,134.5C 142.974,131.761 141.474,129.428 139.5,127.5C 140.372,124.579 140.372,121.579 139.5,118.5 Z"/></g>
<g><path style="opacity:1" fill="#f4b3a1" d="M 160.5,139.5 C 157.57,140.299 154.57,140.632 151.5,140.5C 151.167,139.5 150.5,138.833 149.5,138.5C 149.5,132.167 149.5,125.833 149.5,119.5C 149.833,118.833 150.167,118.167 150.5,117.5C 150.56,116.957 150.893,116.624 151.5,116.5C 153.388,121.964 156.888,125.964 162,128.5C 161.997,132.196 161.497,135.863 160.5,139.5 Z"/></g>
<g><path style="opacity:0.45" fill="#8df2fc" d="M 71.5,116.5 C 85.8333,116.5 100.167,116.5 114.5,116.5C 114.5,117.833 114.5,119.167 114.5,120.5C 97.8333,126.167 81.1667,131.833 64.5,137.5C 63.5,136.167 62.5,134.833 61.5,133.5C 64.5961,127.633 67.9294,121.967 71.5,116.5 Z"/></g>
<g><path style="opacity:0.991" fill="#c0cec6" d="M 58.5,117.5 C 58.8333,117.5 59.1667,117.5 59.5,117.5C 60.436,121.735 60.7693,126.069 60.5,130.5C 60.6716,131.492 60.3382,132.158 59.5,132.5C 59.1667,132.5 58.8333,132.5 58.5,132.5C 58.5,127.5 58.5,122.5 58.5,117.5 Z"/></g>
<g><path style="opacity:0.986" fill="#4bc4fe" d="M 114.5,120.5 C 115.338,120.842 115.672,121.508 115.5,122.5C 102.833,126.833 90.1667,131.167 77.5,135.5C 73.5786,137.029 69.5786,138.363 65.5,139.5C 65.1667,138.833 64.8333,138.167 64.5,137.5C 81.1667,131.833 97.8333,126.167 114.5,120.5 Z"/></g>
<g><path style="opacity:0.474" fill="#87f1fc" d="M 139.5,118.5 C 140.372,121.579 140.372,124.579 139.5,127.5C 138.833,130.833 138.167,134.167 137.5,137.5C 117.402,136.845 97.4021,136.178 77.5,135.5C 90.1667,131.167 102.833,126.833 115.5,122.5C 118.537,127.255 122.871,128.755 128.5,127C 131.493,125.841 133.16,123.675 133.5,120.5C 134.434,119.432 134.768,118.099 134.5,116.5C 136.554,116.365 138.221,117.032 139.5,118.5 Z"/></g>
<g><path style="opacity:1" fill="#8f96db" d="M 139.5,127.5 C 141.474,129.428 142.974,131.761 144,134.5C 145.432,136.439 147.265,137.772 149.5,138.5C 150.5,138.833 151.167,139.5 151.5,140.5C 151.167,140.5 150.833,140.5 150.5,140.5C 149.833,140.5 149.5,140.833 149.5,141.5C 145.687,142.438 142.021,143.771 138.5,145.5C 137.833,145.167 137.167,144.833 136.5,144.5C 136.298,142.05 136.631,139.717 137.5,137.5C 138.167,134.167 138.833,130.833 139.5,127.5 Z"/></g>
<g><path style="opacity:0.5" fill="#80f0fb" d="M 77.5,135.5 C 97.4021,136.178 117.402,136.845 137.5,137.5C 136.631,139.717 136.298,142.05 136.5,144.5C 112.833,144.5 89.1667,144.5 65.5,144.5C 65.5,142.833 65.5,141.167 65.5,139.5C 69.5786,138.363 73.5786,137.029 77.5,135.5 Z"/></g>
<g><path style="opacity:1" fill="#4e75b1" d="M 32.5,102.5 C 32.8333,102.5 33.1667,102.5 33.5,102.5C 33.3075,106.013 33.9741,109.346 35.5,112.5C 35.263,115.063 34.763,115.063 34,112.5C 33.5001,128.497 33.3334,144.497 33.5,160.5C 32.5,159.833 31.5,159.167 30.5,158.5C 30.9867,157.527 31.4867,156.527 32,155.5C 32.4998,146.173 32.6665,136.839 32.5,127.5C 32.6661,121.824 32.4994,116.157 32,110.5C 30.5557,108.845 28.7224,108.178 26.5,108.5C 27.6144,105.596 29.6144,103.596 32.5,102.5 Z"/></g>
<g><path style="opacity:1" fill="#e18c68" d="M 160.5,139.5 C 159.681,141.772 159.015,144.106 158.5,146.5C 156.143,146.663 153.81,146.497 151.5,146C 150.594,144.301 150.261,142.467 150.5,140.5C 150.833,140.5 151.167,140.5 151.5,140.5C 154.57,140.632 157.57,140.299 160.5,139.5 Z"/></g>
<g><path style="opacity:0.528" fill="#79effa" d="M 65.5,144.5 C 89.1667,144.5 112.833,144.5 136.5,144.5C 137.167,144.833 137.833,145.167 138.5,145.5C 138.167,148.167 137.833,150.833 137.5,153.5C 111.82,151.869 86.1534,150.869 60.5,150.5C 62.8903,149.109 64.5569,147.109 65.5,144.5 Z"/></g>
<g><path style="opacity:0.996" fill="#7fb3f3" d="M 58.5,132.5 C 58.8333,132.5 59.1667,132.5 59.5,132.5C 59.8417,133.338 60.5084,133.672 61.5,133.5C 62.5,134.833 63.5,136.167 64.5,137.5C 64.8333,138.167 65.1667,138.833 65.5,139.5C 65.5,141.167 65.5,142.833 65.5,144.5C 64.5569,147.109 62.8903,149.109 60.5,150.5C 59.609,151.11 58.609,151.443 57.5,151.5C 52.0041,151.924 48.3375,149.591 46.5,144.5C 46.1667,136.167 50.1667,132.167 58.5,132.5 Z"/></g>
<g><path style="opacity:0.917" fill="#f6b8a6" d="M 32.5,127.5 C 32.6665,136.839 32.4998,146.173 32,155.5C 31.4867,156.527 30.9867,157.527 30.5,158.5C 27.9439,157.949 25.6106,156.949 23.5,155.5C 23.5,146.5 23.5,137.5 23.5,128.5C 26.6085,128.736 29.6085,128.403 32.5,127.5 Z"/></g>
<g><path style="opacity:1" fill="#5ca5d2" d="M 41.5,108.5 C 45.25,120.41 46.9166,132.41 46.5,144.5C 48.3375,149.591 52.0041,151.924 57.5,151.5C 57.5,156.167 57.5,160.833 57.5,165.5C 56.1266,165.343 54.7932,165.51 53.5,166C 50.5862,169.4 47.9195,172.9 45.5,176.5C 45.6664,168.16 45.4997,159.827 45,151.5C 43.5301,160.332 43.0301,169.332 43.5,178.5C 41.9249,182.078 39.9249,185.411 37.5,188.5C 35.4862,188.392 33.8195,189.058 32.5,190.5C 32.7678,188.901 32.4345,187.568 31.5,186.5C 35.2689,181.679 36.2689,176.346 34.5,170.5C 35.9942,166.975 35.6609,163.642 33.5,160.5C 33.3334,144.497 33.5001,128.497 34,112.5C 34.763,115.063 35.263,115.063 35.5,112.5C 33.9741,109.346 33.3075,106.013 33.5,102.5C 33.56,101.957 33.8933,101.624 34.5,101.5C 35.2184,105.552 37.5517,107.885 41.5,108.5 Z"/></g>
<g><path style="opacity:1" fill="#e9e8de" d="M 150.5,140.5 C 150.261,142.467 150.594,144.301 151.5,146C 153.81,146.497 156.143,146.663 158.5,146.5C 158.5,148.167 158.5,149.833 158.5,151.5C 160.565,151.483 162.565,151.15 164.5,150.5C 164.5,165.167 164.5,179.833 164.5,194.5C 163.833,194.5 163.167,194.5 162.5,194.5C 160.435,194.483 158.435,194.15 156.5,193.5C 154.365,191.929 152.032,190.596 149.5,189.5C 149.5,189.167 149.5,188.833 149.5,188.5C 149.5,172.833 149.5,157.167 149.5,141.5C 149.5,140.833 149.833,140.5 150.5,140.5 Z"/></g>
<g><path style="opacity:0.559" fill="#72edfa" d="M 60.5,150.5 C 86.1534,150.869 111.82,151.869 137.5,153.5C 137.552,155.903 137.219,158.236 136.5,160.5C 135.833,159.833 135.167,159.167 134.5,158.5C 109.339,157.502 84.0055,157.169 58.5,157.5C 58.5,159.5 58.5,161.5 58.5,163.5C 58.5,164.167 58.5,164.833 58.5,165.5C 58.1667,165.5 57.8333,165.5 57.5,165.5C 57.5,160.833 57.5,156.167 57.5,151.5C 58.609,151.443 59.609,151.11 60.5,150.5 Z"/></g>
<g><path style="opacity:0.979" fill="#b25f05" d="M 23.5,155.5 C 25.6106,156.949 27.9439,157.949 30.5,158.5C 31.5,159.167 32.5,159.833 33.5,160.5C 35.6609,163.642 35.9942,166.975 34.5,170.5C 31.0878,172.852 29.2545,176.185 29,180.5C 28.0922,178.561 26.5922,177.561 24.5,177.5C 24.2924,179.92 24.6258,182.253 25.5,184.5C 23.1472,186.523 20.8138,188.523 18.5,190.5C 17.2921,191.234 15.9587,191.567 14.5,191.5C 12.7798,190.692 11.1131,189.692 9.5,188.5C 7.57561,186.305 5.90895,183.972 4.5,181.5C 2.77609,174.633 3.27609,167.966 6,161.5C 10.5231,155.992 16.3564,153.992 23.5,155.5 Z"/></g>
<g><path style="opacity:0.579" fill="#6eecf9" d="M 134.5,158.5 C 134.5,160.167 134.5,161.833 134.5,163.5C 109.167,163.5 83.8333,163.5 58.5,163.5C 58.5,161.5 58.5,159.5 58.5,157.5C 84.0055,157.169 109.339,157.502 134.5,158.5 Z"/></g>
<g><path style="opacity:1" fill="#abf5f4" d="M 149.5,141.5 C 149.5,157.167 149.5,172.833 149.5,188.5C 145.598,186.107 142.098,183.107 139,179.5C 138.83,170.657 138.33,161.99 137.5,153.5C 137.833,150.833 138.167,148.167 138.5,145.5C 142.021,143.771 145.687,142.438 149.5,141.5 Z"/></g>
<g><path style="opacity:0.741" fill="#62d1ec" d="M 45.5,176.5 C 45.1667,177.5 44.5,178.167 43.5,178.5C 43.0301,169.332 43.5301,160.332 45,151.5C 45.4997,159.827 45.6664,168.16 45.5,176.5 Z"/></g>
<g><path style="opacity:0.607" fill="#67eaf8" d="M 134.5,158.5 C 135.167,159.167 135.833,159.833 136.5,160.5C 135.968,166.152 135.635,171.819 135.5,177.5C 134.837,179.042 134.17,180.709 133.5,182.5C 114.191,174.974 94.1912,172.474 73.5,175C 66.8998,176.065 60.5664,177.898 54.5,180.5C 55.8089,177.222 57.6422,174.222 60,171.5C 60.7484,169.16 60.2484,167.16 58.5,165.5C 58.5,164.833 58.5,164.167 58.5,163.5C 83.8333,163.5 109.167,163.5 134.5,163.5C 134.5,161.833 134.5,160.167 134.5,158.5 Z"/></g>
<g><path style="opacity:0.875" fill="#e99c7d" d="M 172.5,147.5 C 174.312,153.647 174.979,159.98 174.5,166.5C 171.52,166.62 168.687,167.287 166,168.5C 165.501,162.509 165.334,156.509 165.5,150.5C 167.426,148.707 169.759,147.707 172.5,147.5 Z"/></g>
<g><path style="opacity:1" fill="#9ad7d3" d="M 137.5,153.5 C 138.33,161.99 138.83,170.657 139,179.5C 142.098,183.107 145.598,186.107 149.5,188.5C 149.5,188.833 149.5,189.167 149.5,189.5C 149.5,190.833 149.5,192.167 149.5,193.5C 145.297,189.81 140.797,186.477 136,183.5C 135.505,181.527 135.338,179.527 135.5,177.5C 135.635,171.819 135.968,166.152 136.5,160.5C 137.219,158.236 137.552,155.903 137.5,153.5 Z"/></g>
<g><path style="opacity:1" fill="#3dd7ff" d="M 149.5,207.5 C 149.756,211.269 149.423,214.936 148.5,218.5C 147.167,216.5 145.833,214.5 144.5,212.5C 142.12,209.119 139.12,206.453 135.5,204.5C 134.205,203.512 132.872,202.512 131.5,201.5C 114.703,193.742 97.036,190.742 78.5,192.5C 75.9824,191.306 75.9824,190.14 78.5,189C 73.9221,188.481 71.2554,185.981 70.5,181.5C 85.3685,178.825 100.368,178.991 115.5,182C 130.853,185.473 142.186,193.973 149.5,207.5 Z"/></g>
<g><path style="opacity:0.846" fill="#d5e1e2" d="M 4.5,181.5 C 5.90895,183.972 7.57561,186.305 9.5,188.5C 3.11458,189.995 0.781246,193.995 2.5,200.5C 2.16667,200.5 1.83333,200.5 1.5,200.5C 0.833333,200.167 0.166667,199.833 -0.5,199.5C -0.5,195.167 -0.5,190.833 -0.5,186.5C 0.133415,183.866 1.80008,182.2 4.5,181.5 Z"/></g>
<g><path style="opacity:1" fill="#3ee5fe" d="M 70.5,181.5 C 71.2554,185.981 73.9221,188.481 78.5,189C 75.9824,190.14 75.9824,191.306 78.5,192.5C 68.9574,193.804 59.9574,196.804 51.5,201.5C 49.6316,202.263 47.9649,203.263 46.5,204.5C 43.5865,205.906 41.0865,207.906 39,210.5C 38.502,213.482 38.3354,216.482 38.5,219.5C 38.5,221.833 38.5,224.167 38.5,226.5C 38.1667,226.5 37.8333,226.5 37.5,226.5C 37.5,220.167 37.5,213.833 37.5,207.5C 39.4482,204.379 41.6148,201.379 44,198.5C 44.4935,196.866 44.6602,195.199 44.5,193.5C 45.5,192.167 46.5,190.833 47.5,189.5C 54.756,185.637 62.4227,182.97 70.5,181.5 Z"/></g>
<g><path style="opacity:1" fill="#f1b3a0" d="M 57.5,165.5 C 57.8333,165.5 58.1667,165.5 58.5,165.5C 60.2484,167.16 60.7484,169.16 60,171.5C 57.6422,174.222 55.8089,177.222 54.5,180.5C 51.8154,183.19 49.4821,186.19 47.5,189.5C 46.5,190.833 45.5,192.167 44.5,193.5C 42.4451,191.445 40.1117,189.779 37.5,188.5C 39.9249,185.411 41.9249,182.078 43.5,178.5C 44.5,178.167 45.1667,177.5 45.5,176.5C 47.9195,172.9 50.5862,169.4 53.5,166C 54.7932,165.51 56.1266,165.343 57.5,165.5 Z"/></g>
<g><path style="opacity:0.777" fill="#f1b098" d="M 34.5,170.5 C 36.2689,176.346 35.2689,181.679 31.5,186.5C 31.1667,187.167 30.8333,187.833 30.5,188.5C 29.2905,188.932 28.2905,189.599 27.5,190.5C 26.8333,190.5 26.1667,190.5 25.5,190.5C 23.0213,191.623 20.688,191.623 18.5,190.5C 20.8138,188.523 23.1472,186.523 25.5,184.5C 24.6258,182.253 24.2924,179.92 24.5,177.5C 26.5922,177.561 28.0922,178.561 29,180.5C 29.2545,176.185 31.0878,172.852 34.5,170.5 Z"/></g>
<g><path style="opacity:1" fill="#fcfdfe" d="M 37.5,188.5 C 40.1117,189.779 42.4451,191.445 44.5,193.5C 44.6602,195.199 44.4935,196.866 44,198.5C 41.6148,201.379 39.4482,204.379 37.5,207.5C 35.8828,208.038 34.2161,208.371 32.5,208.5C 28.4147,208.014 26.4147,205.68 26.5,201.5C 27.5592,198.381 28.8925,195.381 30.5,192.5C 31.5,192.167 32.1667,191.5 32.5,190.5C 33.8195,189.058 35.4862,188.392 37.5,188.5 Z"/></g>
<g><path style="opacity:0.9" fill="#f5baa9" d="M 164.5,150.5 C 164.833,150.5 165.167,150.5 165.5,150.5C 165.334,156.509 165.501,162.509 166,168.5C 168.687,167.287 171.52,166.62 174.5,166.5C 174.784,176.552 174.45,186.552 173.5,196.5C 171.565,197.15 169.565,197.483 167.5,197.5C 166.833,196.167 165.833,195.167 164.5,194.5C 164.5,179.833 164.5,165.167 164.5,150.5 Z"/></g>
<g><path style="opacity:0.659" fill="#3c54c5" d="M 31.5,186.5 C 32.4345,187.568 32.7678,188.901 32.5,190.5C 32.1667,191.5 31.5,192.167 30.5,192.5C 30.5,192.167 30.5,191.833 30.5,191.5C 30.5,190.5 30.5,189.5 30.5,188.5C 30.8333,187.833 31.1667,187.167 31.5,186.5 Z"/></g>
<g><path style="opacity:1" fill="#94f5fe" d="M 135.5,177.5 C 135.338,179.527 135.505,181.527 136,183.5C 140.797,186.477 145.297,189.81 149.5,193.5C 149.5,193.833 149.5,194.167 149.5,194.5C 149.5,198.833 149.5,203.167 149.5,207.5C 142.186,193.973 130.853,185.473 115.5,182C 100.368,178.991 85.3685,178.825 70.5,181.5C 62.4227,182.97 54.756,185.637 47.5,189.5C 49.4821,186.19 51.8154,183.19 54.5,180.5C 60.5664,177.898 66.8998,176.065 73.5,175C 94.1912,172.474 114.191,174.974 133.5,182.5C 134.17,180.709 134.837,179.042 135.5,177.5 Z"/></g>
<g><path style="opacity:1" fill="#db9470" d="M 18.5,190.5 C 20.688,191.623 23.0213,191.623 25.5,190.5C 25.6621,192.527 25.4955,194.527 25,196.5C 24.3292,197.252 23.4959,197.586 22.5,197.5C 17.0929,198.82 14.4263,196.82 14.5,191.5C 15.9587,191.567 17.2921,191.234 18.5,190.5 Z"/></g>
<g><path style="opacity:1" fill="#d85448" d="M 149.5,189.5 C 152.032,190.596 154.365,191.929 156.5,193.5C 156.5,196.5 156.5,199.5 156.5,202.5C 154.638,199.459 152.305,196.792 149.5,194.5C 149.5,194.167 149.5,193.833 149.5,193.5C 149.5,192.167 149.5,190.833 149.5,189.5 Z"/></g>
<g><path style="opacity:1" fill="#fbfdfe" d="M 149.5,194.5 C 152.305,196.792 154.638,199.459 156.5,202.5C 157.15,204.435 157.483,206.435 157.5,208.5C 157.725,213.248 157.225,217.915 156,222.5C 153.381,226.95 150.214,230.95 146.5,234.5C 142.298,237.432 137.965,240.098 133.5,242.5C 127.478,244.73 121.478,246.73 115.5,248.5C 106.241,250.064 96.908,250.731 87.5,250.5C 85.8333,250.5 84.1667,250.5 82.5,250.5C 79.4552,250.492 76.4552,250.159 73.5,249.5C 68.788,248.715 64.1213,247.715 59.5,246.5C 56.1667,245.167 52.8333,243.833 49.5,242.5C 45.1718,240.671 41.1718,238.338 37.5,235.5C 37.5,232.5 37.5,229.5 37.5,226.5C 37.8333,226.5 38.1667,226.5 38.5,226.5C 42.9607,231.623 48.294,235.623 54.5,238.5C 65.7039,243.841 77.5372,246.174 90,245.5C 103.131,246.269 115.631,243.936 127.5,238.5C 137.107,234.559 144.107,227.893 148.5,218.5C 149.423,214.936 149.756,211.269 149.5,207.5C 149.5,203.167 149.5,198.833 149.5,194.5 Z"/></g>
<g><path style="opacity:1" fill="#c03766" d="M 156.5,193.5 C 158.435,194.15 160.435,194.483 162.5,194.5C 162.5,197.5 162.5,200.5 162.5,203.5C 163.791,203.263 164.791,203.596 165.5,204.5C 162.402,204.244 159.402,203.578 156.5,202.5C 156.5,199.5 156.5,196.5 156.5,193.5 Z"/></g>
<g><path style="opacity:1" fill="#af2984" d="M 162.5,194.5 C 163.167,194.5 163.833,194.5 164.5,194.5C 165.833,195.167 166.833,196.167 167.5,197.5C 166.532,199.607 166.198,201.941 166.5,204.5C 166.167,204.5 165.833,204.5 165.5,204.5C 164.791,203.596 163.791,203.263 162.5,203.5C 162.5,200.5 162.5,197.5 162.5,194.5 Z"/></g>
<g><path style="opacity:1" fill="#95e1ef" d="M 9.5,188.5 C 11.1131,189.692 12.7798,190.692 14.5,191.5C 14.4263,196.82 17.0929,198.82 22.5,197.5C 20.7816,198.224 18.9483,198.891 17,199.5C 15.7326,211.84 14.3993,224.174 13,236.5C 12.7679,237.737 12.2679,238.737 11.5,239.5C 8.2139,237.549 5.2139,235.215 2.5,232.5C 2.5,221.833 2.5,211.167 2.5,200.5C 0.781246,193.995 3.11458,189.995 9.5,188.5 Z"/></g>
<g><path style="opacity:0.873" fill="#9209b0" d="M 173.5,196.5 C 175.238,202.927 172.905,205.594 166.5,204.5C 166.198,201.941 166.532,199.607 167.5,197.5C 169.565,197.483 171.565,197.15 173.5,196.5 Z"/></g>
<g><path style="opacity:1" fill="#87f5ff" d="M 78.5,192.5 C 97.036,190.742 114.703,193.742 131.5,201.5C 131.196,202.15 130.863,202.817 130.5,203.5C 104.175,204.5 77.8418,204.833 51.5,204.5C 51.5,203.5 51.5,202.5 51.5,201.5C 59.9574,196.804 68.9574,193.804 78.5,192.5 Z"/></g>
<g><path style="opacity:1" fill="#80f5ff" d="M 51.5,201.5 C 51.5,202.5 51.5,203.5 51.5,204.5C 77.8418,204.833 104.175,204.5 130.5,203.5C 130.863,202.817 131.196,202.15 131.5,201.5C 132.872,202.512 134.205,203.512 135.5,204.5C 134.391,205.29 133.058,205.79 131.5,206C 130.74,207.441 130.074,208.941 129.5,210.5C 104.173,211.666 78.8399,211.833 53.5,211C 52.1387,209.416 51.472,207.582 51.5,205.5C 49.5853,205.784 47.9187,205.451 46.5,204.5C 47.9649,203.263 49.6316,202.263 51.5,201.5 Z"/></g>
<g><path style="opacity:1" fill="#5dd4ee" d="M 25.5,190.5 C 26.1667,190.5 26.8333,190.5 27.5,190.5C 28.391,191.11 29.391,191.443 30.5,191.5C 30.5,191.833 30.5,192.167 30.5,192.5C 28.8925,195.381 27.5592,198.381 26.5,201.5C 26.4147,205.68 28.4147,208.014 32.5,208.5C 30.9479,221.136 29.6146,233.802 28.5,246.5C 27.1667,246.5 25.8333,246.5 24.5,246.5C 19.1764,245.849 14.8431,243.516 11.5,239.5C 12.2679,238.737 12.7679,237.737 13,236.5C 14.3993,224.174 15.7326,211.84 17,199.5C 18.9483,198.891 20.7816,198.224 22.5,197.5C 23.4959,197.586 24.3292,197.252 25,196.5C 25.4955,194.527 25.6621,192.527 25.5,190.5 Z"/></g>
<g><path style="opacity:1" fill="#33c9eb" d="M 37.5,207.5 C 37.5,213.833 37.5,220.167 37.5,226.5C 37.5,229.5 37.5,232.5 37.5,235.5C 38.9297,241.014 36.9297,244.347 31.5,245.5C 30.8333,245.5 30.5,245.833 30.5,246.5C 28.3888,247.742 26.3888,247.742 24.5,246.5C 25.8333,246.5 27.1667,246.5 28.5,246.5C 29.6146,233.802 30.9479,221.136 32.5,208.5C 34.2161,208.371 35.8828,208.038 37.5,207.5 Z"/></g>
<g><path style="opacity:1" fill="#77f4ff" d="M 46.5,204.5 C 47.9187,205.451 49.5853,205.784 51.5,205.5C 51.472,207.582 52.1387,209.416 53.5,211C 78.8399,211.833 104.173,211.666 129.5,210.5C 130.074,208.941 130.74,207.441 131.5,206C 133.058,205.79 134.391,205.29 135.5,204.5C 139.12,206.453 142.12,209.119 144.5,212.5C 139.226,214.137 133.559,215.137 127.5,215.5C 126.807,216.518 126.141,217.518 125.5,218.5C 102.661,218.169 79.9939,218.503 57.5,219.5C 51.1667,219.5 44.8333,219.5 38.5,219.5C 38.3354,216.482 38.502,213.482 39,210.5C 41.0865,207.906 43.5865,205.906 46.5,204.5 Z"/></g>
<g><path style="opacity:1" fill="#71f5ff" d="M 125.5,218.5 C 110.634,235.725 92.6338,239.891 71.5,231C 65.7712,228.436 61.1045,224.603 57.5,219.5C 79.9939,218.503 102.661,218.169 125.5,218.5 Z"/></g>
<g><path style="opacity:0.951" fill="#e1edfc" d="M 157.5,208.5 C 158.494,218.653 158.828,228.986 158.5,239.5C 158.5,240.5 158.5,241.5 158.5,242.5C 158.5,243.5 158.5,244.5 158.5,245.5C 159.115,254.016 158.282,262.349 156,270.5C 153.65,275.348 150.15,279.015 145.5,281.5C 146.006,265.838 146.339,250.171 146.5,234.5C 150.214,230.95 153.381,226.95 156,222.5C 157.225,217.915 157.725,213.248 157.5,208.5 Z"/></g>
<g><path style="opacity:0.925" fill="#f2af99" d="M 156.5,202.5 C 159.402,203.578 162.402,204.244 165.5,204.5C 165.833,204.5 166.167,204.5 166.5,204.5C 166.579,215.688 165.246,226.688 162.5,237.5C 161.817,239.176 160.483,239.843 158.5,239.5C 158.828,228.986 158.494,218.653 157.5,208.5C 157.483,206.435 157.15,204.435 156.5,202.5 Z"/></g>
<g><path style="opacity:0.666" fill="#f6b7a5" d="M 1.5,200.5 C 1.83333,200.5 2.16667,200.5 2.5,200.5C 2.5,211.167 2.5,221.833 2.5,232.5C 1.39105,232.443 0.391047,232.11 -0.5,231.5C -0.5,226.167 -0.5,220.833 -0.5,215.5C 0.327025,210.654 0.993692,205.654 1.5,200.5 Z"/></g>
<g><path style="opacity:1" fill="#5ef1ff" d="M 144.5,212.5 C 145.833,214.5 147.167,216.5 148.5,218.5C 144.107,227.893 137.107,234.559 127.5,238.5C 103.167,237.167 78.8333,237.167 54.5,238.5C 48.294,235.623 42.9607,231.623 38.5,226.5C 38.5,224.167 38.5,221.833 38.5,219.5C 44.8333,219.5 51.1667,219.5 57.5,219.5C 61.1045,224.603 65.7712,228.436 71.5,231C 92.6338,239.891 110.634,235.725 125.5,218.5C 126.141,217.518 126.807,216.518 127.5,215.5C 133.559,215.137 139.226,214.137 144.5,212.5 Z"/></g>
<g><path style="opacity:0.985" fill="#dcebfd" d="M 146.5,234.5 C 146.339,250.171 146.006,265.838 145.5,281.5C 142.012,285.417 137.679,288.083 132.5,289.5C 132.861,273.834 133.194,258.167 133.5,242.5C 137.965,240.098 142.298,237.432 146.5,234.5 Z"/></g>
<g><path style="opacity:0.989" fill="#bfd0fa" d="M 37.5,235.5 C 41.1718,238.338 45.1718,240.671 49.5,242.5C 48.5981,258.145 48.2648,273.812 48.5,289.5C 46.0038,288.42 43.6705,287.086 41.5,285.5C 41.5,284.5 41.5,283.5 41.5,282.5C 41.6399,280.876 40.9733,279.71 39.5,279C 37.0709,278.297 34.7375,278.463 32.5,279.5C 32.5,278.833 32.1667,278.5 31.5,278.5C 31.5,267.5 31.5,256.5 31.5,245.5C 36.9297,244.347 38.9297,241.014 37.5,235.5 Z"/></g>
<g><path style="opacity:1" fill="#51f0ff" d="M 54.5,238.5 C 78.8333,237.167 103.167,237.167 127.5,238.5C 115.631,243.936 103.131,246.269 90,245.5C 77.5372,246.174 65.7039,243.841 54.5,238.5 Z"/></g>
<g><path style="opacity:0.527" fill="#020503" d="M 164.5,239.5 C 164.949,241.977 164.283,243.977 162.5,245.5C 161.808,244.975 161.308,244.308 161,243.5C 160.292,244.381 159.458,245.047 158.5,245.5C 158.5,244.5 158.5,243.5 158.5,242.5C 160.5,241.5 162.5,240.5 164.5,239.5 Z"/></g>
<g><path style="opacity:1" fill="#373059" d="M 162.5,237.5 C 163.5,237.833 164.167,238.5 164.5,239.5C 162.5,240.5 160.5,241.5 158.5,242.5C 158.5,241.5 158.5,240.5 158.5,239.5C 160.483,239.843 161.817,239.176 162.5,237.5 Z"/></g>
<g><path style="opacity:0.897" fill="#25317b" d="M 2.5,232.5 C 5.2139,235.215 8.2139,237.549 11.5,239.5C 14.8431,243.516 19.1764,245.849 24.5,246.5C 26.3888,247.742 28.3888,247.742 30.5,246.5C 30.5,248.5 30.5,250.5 30.5,252.5C 26.1667,252.5 21.8333,252.5 17.5,252.5C 17.5,250.5 17.5,248.5 17.5,246.5C 12.5,246.5 7.5,246.5 2.5,246.5C 2.5,241.833 2.5,237.167 2.5,232.5 Z"/></g>
<g><path style="opacity:0.986" fill="#c2d3fb" d="M 49.5,242.5 C 52.8333,243.833 56.1667,245.167 59.5,246.5C 59.5,262.167 59.5,277.833 59.5,293.5C 55.7207,292.442 52.0541,291.109 48.5,289.5C 48.2648,273.812 48.5981,258.145 49.5,242.5 Z"/></g>
<g><path style="opacity:0.986" fill="#d7e6fd" d="M 133.5,242.5 C 133.194,258.167 132.861,273.834 132.5,289.5C 127.2,292.268 121.533,294.268 115.5,295.5C 115.5,279.833 115.5,264.167 115.5,248.5C 121.478,246.73 127.478,244.73 133.5,242.5 Z"/></g>
<g><path style="opacity:0.987" fill="#c5d6fb" d="M 59.5,246.5 C 64.1213,247.715 68.788,248.715 73.5,249.5C 72.5463,265.131 72.213,280.798 72.5,296.5C 68.0539,295.878 63.7205,294.878 59.5,293.5C 59.5,277.833 59.5,262.167 59.5,246.5 Z"/></g>
<g><path style="opacity:0.989" fill="#d1e1fc" d="M 115.5,248.5 C 115.5,264.167 115.5,279.833 115.5,295.5C 112.311,295.858 109.311,296.525 106.5,297.5C 103.167,297.5 99.8333,297.5 96.5,297.5C 96.5,282.167 96.5,266.833 96.5,251.5C 93.2869,251.81 90.2869,251.477 87.5,250.5C 96.908,250.731 106.241,250.064 115.5,248.5 Z"/></g>
<g><path style="opacity:0.989" fill="#c9d9fb" d="M 73.5,249.5 C 76.4552,250.159 79.4552,250.492 82.5,250.5C 83.4838,266.089 83.8171,281.756 83.5,297.5C 80.8333,297.5 78.1667,297.5 75.5,297.5C 74.791,296.596 73.791,296.263 72.5,296.5C 72.213,280.798 72.5463,265.131 73.5,249.5 Z"/></g>
<g><path style="opacity:0.998" fill="#ccdcfc" d="M 82.5,250.5 C 84.1667,250.5 85.8333,250.5 87.5,250.5C 90.2869,251.477 93.2869,251.81 96.5,251.5C 96.5,266.833 96.5,282.167 96.5,297.5C 92.1667,297.5 87.8333,297.5 83.5,297.5C 83.8171,281.756 83.4838,266.089 82.5,250.5 Z"/></g>
<g><path style="opacity:0.877" fill="#293993" d="M 2.5,246.5 C 7.5,246.5 12.5,246.5 17.5,246.5C 17.5,248.5 17.5,250.5 17.5,252.5C 17.5,253.167 17.5,253.833 17.5,254.5C 12.5,254.5 7.5,254.5 2.5,254.5C 2.5,251.833 2.5,249.167 2.5,246.5 Z"/></g>
<g><path style="opacity:0.877" fill="#3449b4" d="M 2.5,254.5 C 7.5,254.5 12.5,254.5 17.5,254.5C 17.5,262.5 17.5,270.5 17.5,278.5C 16.3951,279.6 15.0618,280.267 13.5,280.5C 8.9476,280.723 5.28094,279.056 2.5,275.5C 2.5,268.5 2.5,261.5 2.5,254.5 Z"/></g>
<g><path style="opacity:0.974" fill="#3d65b0" d="M 17.5,252.5 C 21.8333,252.5 26.1667,252.5 30.5,252.5C 30.5,257.833 30.5,263.167 30.5,268.5C 26.5,268.5 22.5,268.5 18.5,268.5C 18.8195,273.363 18.4861,278.03 17.5,282.5C 17.5,281.167 17.5,279.833 17.5,278.5C 17.5,270.5 17.5,262.5 17.5,254.5C 17.5,253.833 17.5,253.167 17.5,252.5 Z"/></g>
<g><path style="opacity:0.83" fill="#020006" d="M 2.5,278.5 C 5.8684,281.407 9.53506,282.073 13.5,280.5C 15.0618,280.267 16.3951,279.6 17.5,278.5C 17.5,279.833 17.5,281.167 17.5,282.5C 17.5,282.833 17.5,283.167 17.5,283.5C 12.6648,287.453 7.83142,287.453 3,283.5C 2.50649,281.866 2.33982,280.199 2.5,278.5 Z"/></g>
<g><path style="opacity:1" fill="#301965" d="M 41.5,282.5 C 38.0105,285.411 34.3438,288.078 30.5,290.5C 30.244,286.731 30.5773,283.064 31.5,279.5C 31.8333,279.5 32.1667,279.5 32.5,279.5C 34.7375,278.463 37.0709,278.297 39.5,279C 40.9733,279.71 41.6399,280.876 41.5,282.5 Z"/></g>
<g><path style="opacity:1" fill="#2a0e5d" d="M 2.5,275.5 C 5.28094,279.056 8.9476,280.723 13.5,280.5C 9.53506,282.073 5.8684,281.407 2.5,278.5C 2.5,277.5 2.5,276.5 2.5,275.5 Z"/></g>
<g><path style="opacity:0.986" fill="#589aef" d="M 31.5,245.5 C 31.5,256.5 31.5,267.5 31.5,278.5C 31.5,278.833 31.5,279.167 31.5,279.5C 30.5773,283.064 30.244,286.731 30.5,290.5C 30.1667,290.5 29.8333,290.5 29.5,290.5C 24.6329,291.411 20.6329,290.078 17.5,286.5C 17.5,285.5 17.5,284.5 17.5,283.5C 17.5,283.167 17.5,282.833 17.5,282.5C 18.4861,278.03 18.8195,273.363 18.5,268.5C 22.5,268.5 26.5,268.5 30.5,268.5C 30.5,263.167 30.5,257.833 30.5,252.5C 30.5,250.5 30.5,248.5 30.5,246.5C 30.5,245.833 30.8333,245.5 31.5,245.5 Z"/></g>
<g><path style="opacity:0.836" fill="#020104" d="M 41.5,282.5 C 41.5,283.5 41.5,284.5 41.5,285.5C 40.7974,287.716 39.4641,289.549 37.5,291C 34.5674,292.271 31.9007,293.938 29.5,296C 26.0357,296.817 22.7024,296.483 19.5,295C 17.771,293.211 17.1043,291.044 17.5,288.5C 21.0749,292.686 25.0749,293.353 29.5,290.5C 29.8333,290.5 30.1667,290.5 30.5,290.5C 34.3438,288.078 38.0105,285.411 41.5,282.5 Z"/></g>
<g><path style="opacity:1" fill="#2e236b" d="M 17.5,286.5 C 20.6329,290.078 24.6329,291.411 29.5,290.5C 25.0749,293.353 21.0749,292.686 17.5,288.5C 17.5,287.833 17.5,287.167 17.5,286.5 Z"/></g>
</svg>
